%TF.GenerationSoftware,KiCad,Pcbnew,(5.1.10)-1*%
%TF.CreationDate,2021-12-15T14:13:16+00:00*%
%TF.ProjectId,SCOREBOARD,53434f52-4542-44f4-9152-442e6b696361,rev?*%
%TF.SameCoordinates,Original*%
%TF.FileFunction,Soldermask,Bot*%
%TF.FilePolarity,Negative*%
%FSLAX46Y46*%
G04 Gerber Fmt 4.6, Leading zero omitted, Abs format (unit mm)*
G04 Created by KiCad (PCBNEW (5.1.10)-1) date 2021-12-15 14:13:16*
%MOMM*%
%LPD*%
G01*
G04 APERTURE LIST*
%ADD10C,3.200000*%
%ADD11O,1.600000X1.600000*%
%ADD12R,1.600000X1.600000*%
%ADD13C,3.000000*%
%ADD14C,3.250000*%
%ADD15C,1.500000*%
%ADD16R,1.500000X1.500000*%
%ADD17C,1.600000*%
G04 APERTURE END LIST*
D10*
%TO.C,MOUNT*%
X213360000Y-114300000D03*
%TD*%
%TO.C,MOUNT*%
X34290000Y-114300000D03*
%TD*%
%TO.C,MOUNT*%
X34290000Y-207010000D03*
%TD*%
D11*
%TO.C,U15*%
X91440000Y-154940000D03*
X99060000Y-132080000D03*
X91440000Y-152400000D03*
X99060000Y-134620000D03*
X91440000Y-149860000D03*
X99060000Y-137160000D03*
X91440000Y-147320000D03*
X99060000Y-139700000D03*
X91440000Y-144780000D03*
X99060000Y-142240000D03*
X91440000Y-142240000D03*
X99060000Y-144780000D03*
X91440000Y-139700000D03*
X99060000Y-147320000D03*
X91440000Y-137160000D03*
X99060000Y-149860000D03*
X91440000Y-134620000D03*
X99060000Y-152400000D03*
X91440000Y-132080000D03*
D12*
X99060000Y-154940000D03*
%TD*%
D11*
%TO.C,U14*%
X110490000Y-154940000D03*
X118110000Y-132080000D03*
X110490000Y-152400000D03*
X118110000Y-134620000D03*
X110490000Y-149860000D03*
X118110000Y-137160000D03*
X110490000Y-147320000D03*
X118110000Y-139700000D03*
X110490000Y-144780000D03*
X118110000Y-142240000D03*
X110490000Y-142240000D03*
X118110000Y-144780000D03*
X110490000Y-139700000D03*
X118110000Y-147320000D03*
X110490000Y-137160000D03*
X118110000Y-149860000D03*
X110490000Y-134620000D03*
X118110000Y-152400000D03*
X110490000Y-132080000D03*
D12*
X118110000Y-154940000D03*
%TD*%
D11*
%TO.C,U13*%
X129540000Y-154940000D03*
X137160000Y-132080000D03*
X129540000Y-152400000D03*
X137160000Y-134620000D03*
X129540000Y-149860000D03*
X137160000Y-137160000D03*
X129540000Y-147320000D03*
X137160000Y-139700000D03*
X129540000Y-144780000D03*
X137160000Y-142240000D03*
X129540000Y-142240000D03*
X137160000Y-144780000D03*
X129540000Y-139700000D03*
X137160000Y-147320000D03*
X129540000Y-137160000D03*
X137160000Y-149860000D03*
X129540000Y-134620000D03*
X137160000Y-152400000D03*
X129540000Y-132080000D03*
D12*
X137160000Y-154940000D03*
%TD*%
D11*
%TO.C,U12*%
X148590000Y-154940000D03*
X156210000Y-132080000D03*
X148590000Y-152400000D03*
X156210000Y-134620000D03*
X148590000Y-149860000D03*
X156210000Y-137160000D03*
X148590000Y-147320000D03*
X156210000Y-139700000D03*
X148590000Y-144780000D03*
X156210000Y-142240000D03*
X148590000Y-142240000D03*
X156210000Y-144780000D03*
X148590000Y-139700000D03*
X156210000Y-147320000D03*
X148590000Y-137160000D03*
X156210000Y-149860000D03*
X148590000Y-134620000D03*
X156210000Y-152400000D03*
X148590000Y-132080000D03*
D12*
X156210000Y-154940000D03*
%TD*%
D11*
%TO.C,U11*%
X167640000Y-154940000D03*
X175260000Y-132080000D03*
X167640000Y-152400000D03*
X175260000Y-134620000D03*
X167640000Y-149860000D03*
X175260000Y-137160000D03*
X167640000Y-147320000D03*
X175260000Y-139700000D03*
X167640000Y-144780000D03*
X175260000Y-142240000D03*
X167640000Y-142240000D03*
X175260000Y-144780000D03*
X167640000Y-139700000D03*
X175260000Y-147320000D03*
X167640000Y-137160000D03*
X175260000Y-149860000D03*
X167640000Y-134620000D03*
X175260000Y-152400000D03*
X167640000Y-132080000D03*
D12*
X175260000Y-154940000D03*
%TD*%
D11*
%TO.C,U10*%
X186690000Y-154940000D03*
X194310000Y-132080000D03*
X186690000Y-152400000D03*
X194310000Y-134620000D03*
X186690000Y-149860000D03*
X194310000Y-137160000D03*
X186690000Y-147320000D03*
X194310000Y-139700000D03*
X186690000Y-144780000D03*
X194310000Y-142240000D03*
X186690000Y-142240000D03*
X194310000Y-144780000D03*
X186690000Y-139700000D03*
X194310000Y-147320000D03*
X186690000Y-137160000D03*
X194310000Y-149860000D03*
X186690000Y-134620000D03*
X194310000Y-152400000D03*
X186690000Y-132080000D03*
D12*
X194310000Y-154940000D03*
%TD*%
D11*
%TO.C,U9*%
X203200000Y-166370000D03*
X195580000Y-189230000D03*
X203200000Y-168910000D03*
X195580000Y-186690000D03*
X203200000Y-171450000D03*
X195580000Y-184150000D03*
X203200000Y-173990000D03*
X195580000Y-181610000D03*
X203200000Y-176530000D03*
X195580000Y-179070000D03*
X203200000Y-179070000D03*
X195580000Y-176530000D03*
X203200000Y-181610000D03*
X195580000Y-173990000D03*
X203200000Y-184150000D03*
X195580000Y-171450000D03*
X203200000Y-186690000D03*
X195580000Y-168910000D03*
X203200000Y-189230000D03*
D12*
X195580000Y-166370000D03*
%TD*%
D11*
%TO.C,U8*%
X184150000Y-166370000D03*
X176530000Y-189230000D03*
X184150000Y-168910000D03*
X176530000Y-186690000D03*
X184150000Y-171450000D03*
X176530000Y-184150000D03*
X184150000Y-173990000D03*
X176530000Y-181610000D03*
X184150000Y-176530000D03*
X176530000Y-179070000D03*
X184150000Y-179070000D03*
X176530000Y-176530000D03*
X184150000Y-181610000D03*
X176530000Y-173990000D03*
X184150000Y-184150000D03*
X176530000Y-171450000D03*
X184150000Y-186690000D03*
X176530000Y-168910000D03*
X184150000Y-189230000D03*
D12*
X176530000Y-166370000D03*
%TD*%
D11*
%TO.C,U7*%
X165100000Y-166370000D03*
X157480000Y-189230000D03*
X165100000Y-168910000D03*
X157480000Y-186690000D03*
X165100000Y-171450000D03*
X157480000Y-184150000D03*
X165100000Y-173990000D03*
X157480000Y-181610000D03*
X165100000Y-176530000D03*
X157480000Y-179070000D03*
X165100000Y-179070000D03*
X157480000Y-176530000D03*
X165100000Y-181610000D03*
X157480000Y-173990000D03*
X165100000Y-184150000D03*
X157480000Y-171450000D03*
X165100000Y-186690000D03*
X157480000Y-168910000D03*
X165100000Y-189230000D03*
D12*
X157480000Y-166370000D03*
%TD*%
D11*
%TO.C,U6*%
X146050000Y-166370000D03*
X138430000Y-189230000D03*
X146050000Y-168910000D03*
X138430000Y-186690000D03*
X146050000Y-171450000D03*
X138430000Y-184150000D03*
X146050000Y-173990000D03*
X138430000Y-181610000D03*
X146050000Y-176530000D03*
X138430000Y-179070000D03*
X146050000Y-179070000D03*
X138430000Y-176530000D03*
X146050000Y-181610000D03*
X138430000Y-173990000D03*
X146050000Y-184150000D03*
X138430000Y-171450000D03*
X146050000Y-186690000D03*
X138430000Y-168910000D03*
X146050000Y-189230000D03*
D12*
X138430000Y-166370000D03*
%TD*%
D11*
%TO.C,U5*%
X127000000Y-166370000D03*
X119380000Y-189230000D03*
X127000000Y-168910000D03*
X119380000Y-186690000D03*
X127000000Y-171450000D03*
X119380000Y-184150000D03*
X127000000Y-173990000D03*
X119380000Y-181610000D03*
X127000000Y-176530000D03*
X119380000Y-179070000D03*
X127000000Y-179070000D03*
X119380000Y-176530000D03*
X127000000Y-181610000D03*
X119380000Y-173990000D03*
X127000000Y-184150000D03*
X119380000Y-171450000D03*
X127000000Y-186690000D03*
X119380000Y-168910000D03*
X127000000Y-189230000D03*
D12*
X119380000Y-166370000D03*
%TD*%
D11*
%TO.C,U4*%
X107950000Y-166370000D03*
X100330000Y-189230000D03*
X107950000Y-168910000D03*
X100330000Y-186690000D03*
X107950000Y-171450000D03*
X100330000Y-184150000D03*
X107950000Y-173990000D03*
X100330000Y-181610000D03*
X107950000Y-176530000D03*
X100330000Y-179070000D03*
X107950000Y-179070000D03*
X100330000Y-176530000D03*
X107950000Y-181610000D03*
X100330000Y-173990000D03*
X107950000Y-184150000D03*
X100330000Y-171450000D03*
X107950000Y-186690000D03*
X100330000Y-168910000D03*
X107950000Y-189230000D03*
D12*
X100330000Y-166370000D03*
%TD*%
D11*
%TO.C,U3*%
X88900000Y-166370000D03*
X81280000Y-189230000D03*
X88900000Y-168910000D03*
X81280000Y-186690000D03*
X88900000Y-171450000D03*
X81280000Y-184150000D03*
X88900000Y-173990000D03*
X81280000Y-181610000D03*
X88900000Y-176530000D03*
X81280000Y-179070000D03*
X88900000Y-179070000D03*
X81280000Y-176530000D03*
X88900000Y-181610000D03*
X81280000Y-173990000D03*
X88900000Y-184150000D03*
X81280000Y-171450000D03*
X88900000Y-186690000D03*
X81280000Y-168910000D03*
X88900000Y-189230000D03*
D12*
X81280000Y-166370000D03*
%TD*%
D11*
%TO.C,U2*%
X69850000Y-166370000D03*
X62230000Y-189230000D03*
X69850000Y-168910000D03*
X62230000Y-186690000D03*
X69850000Y-171450000D03*
X62230000Y-184150000D03*
X69850000Y-173990000D03*
X62230000Y-181610000D03*
X69850000Y-176530000D03*
X62230000Y-179070000D03*
X69850000Y-179070000D03*
X62230000Y-176530000D03*
X69850000Y-181610000D03*
X62230000Y-173990000D03*
X69850000Y-184150000D03*
X62230000Y-171450000D03*
X69850000Y-186690000D03*
X62230000Y-168910000D03*
X69850000Y-189230000D03*
D12*
X62230000Y-166370000D03*
%TD*%
D11*
%TO.C,U1*%
X50800000Y-166370000D03*
X43180000Y-189230000D03*
X50800000Y-168910000D03*
X43180000Y-186690000D03*
X50800000Y-171450000D03*
X43180000Y-184150000D03*
X50800000Y-173990000D03*
X43180000Y-181610000D03*
X50800000Y-176530000D03*
X43180000Y-179070000D03*
X50800000Y-179070000D03*
X43180000Y-176530000D03*
X50800000Y-181610000D03*
X43180000Y-173990000D03*
X50800000Y-184150000D03*
X43180000Y-171450000D03*
X50800000Y-186690000D03*
X43180000Y-168910000D03*
X50800000Y-189230000D03*
D12*
X43180000Y-166370000D03*
%TD*%
D10*
%TO.C,MOUNT*%
X213360000Y-207010000D03*
%TD*%
D13*
%TO.C,J16*%
X40640000Y-146010000D03*
X40640000Y-141010000D03*
%TD*%
D14*
%TO.C,J1*%
X53340000Y-204470000D03*
D13*
X55395000Y-207520000D03*
D14*
X41910000Y-204470000D03*
D15*
X45720000Y-198120000D03*
X48260000Y-198120000D03*
X46990000Y-195580000D03*
X50800000Y-198120000D03*
D16*
X43180000Y-198120000D03*
D15*
X44450000Y-195580000D03*
D13*
X39855000Y-207520000D03*
D15*
X52070000Y-195580000D03*
X49530000Y-195580000D03*
%TD*%
D14*
%TO.C,J15*%
X88900000Y-116840000D03*
D13*
X86845000Y-113790000D03*
D14*
X100330000Y-116840000D03*
D15*
X96520000Y-123190000D03*
X93980000Y-123190000D03*
X95250000Y-125730000D03*
X91440000Y-123190000D03*
D16*
X99060000Y-123190000D03*
D15*
X97790000Y-125730000D03*
D13*
X102385000Y-113790000D03*
D15*
X90170000Y-125730000D03*
X92710000Y-125730000D03*
%TD*%
%TO.C,J14*%
X111760000Y-125730000D03*
X109220000Y-125730000D03*
D13*
X121435000Y-113790000D03*
D15*
X116840000Y-125730000D03*
D16*
X118110000Y-123190000D03*
D15*
X110490000Y-123190000D03*
X114300000Y-125730000D03*
X113030000Y-123190000D03*
X115570000Y-123190000D03*
D14*
X119380000Y-116840000D03*
D13*
X105895000Y-113790000D03*
D14*
X107950000Y-116840000D03*
%TD*%
D15*
%TO.C,J13*%
X130810000Y-125730000D03*
X128270000Y-125730000D03*
D13*
X140485000Y-113790000D03*
D15*
X135890000Y-125730000D03*
D16*
X137160000Y-123190000D03*
D15*
X129540000Y-123190000D03*
X133350000Y-125730000D03*
X132080000Y-123190000D03*
X134620000Y-123190000D03*
D14*
X138430000Y-116840000D03*
D13*
X124945000Y-113790000D03*
D14*
X127000000Y-116840000D03*
%TD*%
D15*
%TO.C,J12*%
X149860000Y-125730000D03*
X147320000Y-125730000D03*
D13*
X159535000Y-113790000D03*
D15*
X154940000Y-125730000D03*
D16*
X156210000Y-123190000D03*
D15*
X148590000Y-123190000D03*
X152400000Y-125730000D03*
X151130000Y-123190000D03*
X153670000Y-123190000D03*
D14*
X157480000Y-116840000D03*
D13*
X143995000Y-113790000D03*
D14*
X146050000Y-116840000D03*
%TD*%
D15*
%TO.C,J11*%
X168910000Y-125730000D03*
X166370000Y-125730000D03*
D13*
X178585000Y-113790000D03*
D15*
X173990000Y-125730000D03*
D16*
X175260000Y-123190000D03*
D15*
X167640000Y-123190000D03*
X171450000Y-125730000D03*
X170180000Y-123190000D03*
X172720000Y-123190000D03*
D14*
X176530000Y-116840000D03*
D13*
X163045000Y-113790000D03*
D14*
X165100000Y-116840000D03*
%TD*%
D15*
%TO.C,J10*%
X187960000Y-125730000D03*
X185420000Y-125730000D03*
D13*
X197635000Y-113790000D03*
D15*
X193040000Y-125730000D03*
D16*
X194310000Y-123190000D03*
D15*
X186690000Y-123190000D03*
X190500000Y-125730000D03*
X189230000Y-123190000D03*
X191770000Y-123190000D03*
D14*
X195580000Y-116840000D03*
D13*
X182095000Y-113790000D03*
D14*
X184150000Y-116840000D03*
%TD*%
D15*
%TO.C,J9*%
X201930000Y-195580000D03*
X204470000Y-195580000D03*
D13*
X192255000Y-207520000D03*
D15*
X196850000Y-195580000D03*
D16*
X195580000Y-198120000D03*
D15*
X203200000Y-198120000D03*
X199390000Y-195580000D03*
X200660000Y-198120000D03*
X198120000Y-198120000D03*
D14*
X194310000Y-204470000D03*
D13*
X207795000Y-207520000D03*
D14*
X205740000Y-204470000D03*
%TD*%
D15*
%TO.C,J8*%
X182880000Y-195580000D03*
X185420000Y-195580000D03*
D13*
X173205000Y-207520000D03*
D15*
X177800000Y-195580000D03*
D16*
X176530000Y-198120000D03*
D15*
X184150000Y-198120000D03*
X180340000Y-195580000D03*
X181610000Y-198120000D03*
X179070000Y-198120000D03*
D14*
X175260000Y-204470000D03*
D13*
X188745000Y-207520000D03*
D14*
X186690000Y-204470000D03*
%TD*%
D15*
%TO.C,J7*%
X163830000Y-195580000D03*
X166370000Y-195580000D03*
D13*
X154155000Y-207520000D03*
D15*
X158750000Y-195580000D03*
D16*
X157480000Y-198120000D03*
D15*
X165100000Y-198120000D03*
X161290000Y-195580000D03*
X162560000Y-198120000D03*
X160020000Y-198120000D03*
D14*
X156210000Y-204470000D03*
D13*
X169695000Y-207520000D03*
D14*
X167640000Y-204470000D03*
%TD*%
D15*
%TO.C,J6*%
X144780000Y-195580000D03*
X147320000Y-195580000D03*
D13*
X135105000Y-207520000D03*
D15*
X139700000Y-195580000D03*
D16*
X138430000Y-198120000D03*
D15*
X146050000Y-198120000D03*
X142240000Y-195580000D03*
X143510000Y-198120000D03*
X140970000Y-198120000D03*
D14*
X137160000Y-204470000D03*
D13*
X150645000Y-207520000D03*
D14*
X148590000Y-204470000D03*
%TD*%
D15*
%TO.C,J5*%
X125730000Y-195580000D03*
X128270000Y-195580000D03*
D13*
X116055000Y-207520000D03*
D15*
X120650000Y-195580000D03*
D16*
X119380000Y-198120000D03*
D15*
X127000000Y-198120000D03*
X123190000Y-195580000D03*
X124460000Y-198120000D03*
X121920000Y-198120000D03*
D14*
X118110000Y-204470000D03*
D13*
X131595000Y-207520000D03*
D14*
X129540000Y-204470000D03*
%TD*%
D15*
%TO.C,J4*%
X106680000Y-195580000D03*
X109220000Y-195580000D03*
D13*
X97005000Y-207520000D03*
D15*
X101600000Y-195580000D03*
D16*
X100330000Y-198120000D03*
D15*
X107950000Y-198120000D03*
X104140000Y-195580000D03*
X105410000Y-198120000D03*
X102870000Y-198120000D03*
D14*
X99060000Y-204470000D03*
D13*
X112545000Y-207520000D03*
D14*
X110490000Y-204470000D03*
%TD*%
%TO.C,J3*%
X91440000Y-204470000D03*
D13*
X93495000Y-207520000D03*
D14*
X80010000Y-204470000D03*
D15*
X83820000Y-198120000D03*
X86360000Y-198120000D03*
X85090000Y-195580000D03*
X88900000Y-198120000D03*
D16*
X81280000Y-198120000D03*
D15*
X82550000Y-195580000D03*
D13*
X77955000Y-207520000D03*
D15*
X90170000Y-195580000D03*
X87630000Y-195580000D03*
%TD*%
D14*
%TO.C,J2*%
X72390000Y-204470000D03*
D13*
X74445000Y-207520000D03*
D14*
X60960000Y-204470000D03*
D15*
X64770000Y-198120000D03*
X67310000Y-198120000D03*
X66040000Y-195580000D03*
X69850000Y-198120000D03*
D16*
X62230000Y-198120000D03*
D15*
X63500000Y-195580000D03*
D13*
X58905000Y-207520000D03*
D15*
X71120000Y-195580000D03*
X68580000Y-195580000D03*
%TD*%
D17*
%TO.C,C15*%
X92790000Y-160020000D03*
X97790000Y-160020000D03*
%TD*%
%TO.C,C14*%
X111840000Y-160020000D03*
X116840000Y-160020000D03*
%TD*%
%TO.C,C13*%
X130890000Y-160020000D03*
X135890000Y-160020000D03*
%TD*%
%TO.C,C12*%
X149940000Y-160020000D03*
X154940000Y-160020000D03*
%TD*%
%TO.C,C11*%
X168990000Y-160020000D03*
X173990000Y-160020000D03*
%TD*%
%TO.C,C10*%
X188040000Y-160020000D03*
X193040000Y-160020000D03*
%TD*%
%TO.C,C9*%
X201850000Y-161290000D03*
X196850000Y-161290000D03*
%TD*%
%TO.C,C8*%
X182800000Y-161290000D03*
X177800000Y-161290000D03*
%TD*%
%TO.C,C7*%
X163750000Y-161290000D03*
X158750000Y-161290000D03*
%TD*%
%TO.C,C6*%
X144700000Y-161290000D03*
X139700000Y-161290000D03*
%TD*%
%TO.C,C5*%
X125650000Y-161290000D03*
X120650000Y-161290000D03*
%TD*%
%TO.C,C4*%
X106600000Y-161290000D03*
X101600000Y-161290000D03*
%TD*%
%TO.C,C3*%
X87550000Y-161290000D03*
X82550000Y-161290000D03*
%TD*%
%TO.C,C2*%
X68500000Y-161290000D03*
X63500000Y-161290000D03*
%TD*%
%TO.C,C1*%
X49450000Y-161290000D03*
X44450000Y-161290000D03*
%TD*%
D11*
%TO.C,A1*%
X58420000Y-114300000D03*
X73660000Y-114300000D03*
X58420000Y-149860000D03*
X73660000Y-116840000D03*
X58420000Y-147320000D03*
X73660000Y-119380000D03*
X58420000Y-144780000D03*
X73660000Y-121920000D03*
X58420000Y-142240000D03*
X73660000Y-124460000D03*
X58420000Y-139700000D03*
X73660000Y-127000000D03*
X58420000Y-137160000D03*
X73660000Y-129540000D03*
X58420000Y-134620000D03*
X73660000Y-132080000D03*
X58420000Y-132080000D03*
X73660000Y-134620000D03*
X58420000Y-129540000D03*
X73660000Y-137160000D03*
X58420000Y-127000000D03*
X73660000Y-139700000D03*
X58420000Y-124460000D03*
X73660000Y-142240000D03*
X58420000Y-121920000D03*
X73660000Y-144780000D03*
X58420000Y-119380000D03*
X73660000Y-147320000D03*
X58420000Y-116840000D03*
D12*
X73660000Y-149860000D03*
%TD*%
M02*
