M48
; DRILL file {KiCad (5.1.10)-1} date 12/15/21 14:13:23
; FORMAT={-:-/ absolute / inch / decimal}
; #@! TF.CreationDate,2021-12-15T14:13:23+00:00
; #@! TF.GenerationSoftware,Kicad,Pcbnew,(5.1.10)-1
; #@! TF.FileFunction,NonPlated,1,2,NPTH
FMAT,2
INCH
T1C0.1260
T2C0.1280
%
G90
G05
T1
X1.35Y-4.5
X1.35Y-8.15
X8.4Y-4.5
X8.4Y-8.15
T2
X1.65Y-8.05
X2.1Y-8.05
X2.4Y-8.05
X2.85Y-8.05
X3.15Y-8.05
X3.5Y-4.6
X3.6Y-8.05
X3.9Y-8.05
X3.95Y-4.6
X4.25Y-4.6
X4.35Y-8.05
X4.65Y-8.05
X4.7Y-4.6
X5.0Y-4.6
X5.1Y-8.05
X5.4Y-8.05
X5.45Y-4.6
X5.75Y-4.6
X5.85Y-8.05
X6.15Y-8.05
X6.2Y-4.6
X6.5Y-4.6
X6.6Y-8.05
X6.9Y-8.05
X6.95Y-4.6
X7.25Y-4.6
X7.35Y-8.05
X7.65Y-8.05
X7.7Y-4.6
X8.1Y-8.05
T0
M30
