M48
; DRILL file {KiCad (5.1.10)-1} date 12/15/21 14:13:23
; FORMAT={-:-/ absolute / inch / decimal}
; #@! TF.CreationDate,2021-12-15T14:13:23+00:00
; #@! TF.GenerationSoftware,Kicad,Pcbnew,(5.1.10)-1
; #@! TF.FileFunction,Plated,1,2,PTH
FMAT,2
INCH
T1C0.0157
T2C0.0315
T3C0.0354
T4C0.0394
T5C0.0472
T6C0.0630
%
G90
G05
T1
X1.85Y-7.15
X2.15Y-7.25
X2.15Y-7.35
X2.15Y-7.6
X2.2Y-7.55
X2.6Y-7.15
X2.9Y-7.25
X2.9Y-7.35
X2.9Y-7.6
X2.95Y-7.55
X3.35Y-7.15
X3.4Y-5.1
X3.4Y-5.3
X3.4Y-5.4
X3.45Y-5.05
X3.65Y-7.25
X3.65Y-7.35
X3.65Y-7.6
X3.7Y-7.55
X3.75Y-5.5
X4.1Y-7.15
X4.15Y-5.1
X4.2Y-5.05
X4.2Y-5.3
X4.2Y-5.4
X4.4Y-7.25
X4.4Y-7.35
X4.4Y-7.6
X4.45Y-7.55
X4.5Y-5.5
X4.85Y-7.15
X4.9Y-5.1
X4.95Y-5.05
X4.95Y-5.3
X4.95Y-5.4
X5.15Y-7.25
X5.15Y-7.35
X5.15Y-7.6
X5.2Y-7.55
X5.25Y-5.5
X5.6Y-7.15
X5.65Y-5.1
X5.7Y-5.05
X5.7Y-5.3
X5.7Y-5.4
X5.9Y-7.25
X5.9Y-7.35
X5.9Y-7.6
X5.95Y-7.55
X6.0Y-5.5
X6.35Y-7.15
X6.4Y-5.1
X6.45Y-5.05
X6.45Y-5.3
X6.45Y-5.4
X6.65Y-7.25
X6.65Y-7.35
X6.65Y-7.6
X6.7Y-7.55
X6.75Y-5.5
X7.1Y-7.15
X7.15Y-5.1
X7.2Y-5.05
X7.2Y-5.3
X7.2Y-5.4
X7.4Y-7.25
X7.4Y-7.35
X7.4Y-7.6
X7.45Y-7.55
X7.5Y-5.5
X7.85Y-7.15
X7.9Y-5.05
X7.9Y-5.1
X8.1102Y-7.2
X8.1102Y-7.25
X8.15Y-7.55
X8.2Y-7.45
T2
X1.7Y-6.55
X1.7Y-6.65
X1.7Y-6.75
X1.7Y-6.85
X1.7Y-6.95
X1.7Y-7.05
X1.7Y-7.15
X1.7Y-7.25
X1.7Y-7.35
X1.7Y-7.45
X1.75Y-6.35
X1.9469Y-6.35
X2.0Y-6.55
X2.0Y-6.65
X2.0Y-6.75
X2.0Y-6.85
X2.0Y-6.95
X2.0Y-7.05
X2.0Y-7.15
X2.0Y-7.25
X2.0Y-7.35
X2.0Y-7.45
X2.45Y-6.55
X2.45Y-6.65
X2.45Y-6.75
X2.45Y-6.85
X2.45Y-6.95
X2.45Y-7.05
X2.45Y-7.15
X2.45Y-7.25
X2.45Y-7.35
X2.45Y-7.45
X2.5Y-6.35
X2.6969Y-6.35
X2.75Y-6.55
X2.75Y-6.65
X2.75Y-6.75
X2.75Y-6.85
X2.75Y-6.95
X2.75Y-7.05
X2.75Y-7.15
X2.75Y-7.25
X2.75Y-7.35
X2.75Y-7.45
X3.2Y-6.55
X3.2Y-6.65
X3.2Y-6.75
X3.2Y-6.85
X3.2Y-6.95
X3.2Y-7.05
X3.2Y-7.15
X3.2Y-7.25
X3.2Y-7.35
X3.2Y-7.45
X3.25Y-6.35
X3.4469Y-6.35
X3.5Y-6.55
X3.5Y-6.65
X3.5Y-6.75
X3.5Y-6.85
X3.5Y-6.95
X3.5Y-7.05
X3.5Y-7.15
X3.5Y-7.25
X3.5Y-7.35
X3.5Y-7.45
X3.6Y-5.2
X3.6Y-5.3
X3.6Y-5.4
X3.6Y-5.5
X3.6Y-5.6
X3.6Y-5.7
X3.6Y-5.8
X3.6Y-5.9
X3.6Y-6.0
X3.6Y-6.1
X3.6531Y-6.3
X3.85Y-6.3
X3.9Y-5.2
X3.9Y-5.3
X3.9Y-5.4
X3.9Y-5.5
X3.9Y-5.6
X3.9Y-5.7
X3.9Y-5.8
X3.9Y-5.9
X3.9Y-6.0
X3.9Y-6.1
X3.95Y-6.55
X3.95Y-6.65
X3.95Y-6.75
X3.95Y-6.85
X3.95Y-6.95
X3.95Y-7.05
X3.95Y-7.15
X3.95Y-7.25
X3.95Y-7.35
X3.95Y-7.45
X4.0Y-6.35
X4.1969Y-6.35
X4.25Y-6.55
X4.25Y-6.65
X4.25Y-6.75
X4.25Y-6.85
X4.25Y-6.95
X4.25Y-7.05
X4.25Y-7.15
X4.25Y-7.25
X4.25Y-7.35
X4.25Y-7.45
X4.35Y-5.2
X4.35Y-5.3
X4.35Y-5.4
X4.35Y-5.5
X4.35Y-5.6
X4.35Y-5.7
X4.35Y-5.8
X4.35Y-5.9
X4.35Y-6.0
X4.35Y-6.1
X4.4031Y-6.3
X4.6Y-6.3
X4.65Y-5.2
X4.65Y-5.3
X4.65Y-5.4
X4.65Y-5.5
X4.65Y-5.6
X4.65Y-5.7
X4.65Y-5.8
X4.65Y-5.9
X4.65Y-6.0
X4.65Y-6.1
X4.7Y-6.55
X4.7Y-6.65
X4.7Y-6.75
X4.7Y-6.85
X4.7Y-6.95
X4.7Y-7.05
X4.7Y-7.15
X4.7Y-7.25
X4.7Y-7.35
X4.7Y-7.45
X4.75Y-6.35
X4.9469Y-6.35
X5.0Y-6.55
X5.0Y-6.65
X5.0Y-6.75
X5.0Y-6.85
X5.0Y-6.95
X5.0Y-7.05
X5.0Y-7.15
X5.0Y-7.25
X5.0Y-7.35
X5.0Y-7.45
X5.1Y-5.2
X5.1Y-5.3
X5.1Y-5.4
X5.1Y-5.5
X5.1Y-5.6
X5.1Y-5.7
X5.1Y-5.8
X5.1Y-5.9
X5.1Y-6.0
X5.1Y-6.1
X5.1531Y-6.3
X5.35Y-6.3
X5.4Y-5.2
X5.4Y-5.3
X5.4Y-5.4
X5.4Y-5.5
X5.4Y-5.6
X5.4Y-5.7
X5.4Y-5.8
X5.4Y-5.9
X5.4Y-6.0
X5.4Y-6.1
X5.45Y-6.55
X5.45Y-6.65
X5.45Y-6.75
X5.45Y-6.85
X5.45Y-6.95
X5.45Y-7.05
X5.45Y-7.15
X5.45Y-7.25
X5.45Y-7.35
X5.45Y-7.45
X5.5Y-6.35
X5.6969Y-6.35
X5.75Y-6.55
X5.75Y-6.65
X5.75Y-6.75
X5.75Y-6.85
X5.75Y-6.95
X5.75Y-7.05
X5.75Y-7.15
X5.75Y-7.25
X5.75Y-7.35
X5.75Y-7.45
X5.85Y-5.2
X5.85Y-5.3
X5.85Y-5.4
X5.85Y-5.5
X5.85Y-5.6
X5.85Y-5.7
X5.85Y-5.8
X5.85Y-5.9
X5.85Y-6.0
X5.85Y-6.1
X5.9031Y-6.3
X6.1Y-6.3
X6.15Y-5.2
X6.15Y-5.3
X6.15Y-5.4
X6.15Y-5.5
X6.15Y-5.6
X6.15Y-5.7
X6.15Y-5.8
X6.15Y-5.9
X6.15Y-6.0
X6.15Y-6.1
X6.2Y-6.55
X6.2Y-6.65
X6.2Y-6.75
X6.2Y-6.85
X6.2Y-6.95
X6.2Y-7.05
X6.2Y-7.15
X6.2Y-7.25
X6.2Y-7.35
X6.2Y-7.45
X6.25Y-6.35
X6.4469Y-6.35
X6.5Y-6.55
X6.5Y-6.65
X6.5Y-6.75
X6.5Y-6.85
X6.5Y-6.95
X6.5Y-7.05
X6.5Y-7.15
X6.5Y-7.25
X6.5Y-7.35
X6.5Y-7.45
X6.6Y-5.2
X6.6Y-5.3
X6.6Y-5.4
X6.6Y-5.5
X6.6Y-5.6
X6.6Y-5.7
X6.6Y-5.8
X6.6Y-5.9
X6.6Y-6.0
X6.6Y-6.1
X6.6531Y-6.3
X6.85Y-6.3
X6.9Y-5.2
X6.9Y-5.3
X6.9Y-5.4
X6.9Y-5.5
X6.9Y-5.6
X6.9Y-5.7
X6.9Y-5.8
X6.9Y-5.9
X6.9Y-6.0
X6.9Y-6.1
X6.95Y-6.55
X6.95Y-6.65
X6.95Y-6.75
X6.95Y-6.85
X6.95Y-6.95
X6.95Y-7.05
X6.95Y-7.15
X6.95Y-7.25
X6.95Y-7.35
X6.95Y-7.45
X7.0Y-6.35
X7.1969Y-6.35
X7.25Y-6.55
X7.25Y-6.65
X7.25Y-6.75
X7.25Y-6.85
X7.25Y-6.95
X7.25Y-7.05
X7.25Y-7.15
X7.25Y-7.25
X7.25Y-7.35
X7.25Y-7.45
X7.35Y-5.2
X7.35Y-5.3
X7.35Y-5.4
X7.35Y-5.5
X7.35Y-5.6
X7.35Y-5.7
X7.35Y-5.8
X7.35Y-5.9
X7.35Y-6.0
X7.35Y-6.1
X7.4031Y-6.3
X7.6Y-6.3
X7.65Y-5.2
X7.65Y-5.3
X7.65Y-5.4
X7.65Y-5.5
X7.65Y-5.6
X7.65Y-5.7
X7.65Y-5.8
X7.65Y-5.9
X7.65Y-6.0
X7.65Y-6.1
X7.7Y-6.55
X7.7Y-6.65
X7.7Y-6.75
X7.7Y-6.85
X7.7Y-6.95
X7.7Y-7.05
X7.7Y-7.15
X7.7Y-7.25
X7.7Y-7.35
X7.7Y-7.45
X7.75Y-6.35
X7.9469Y-6.35
X8.0Y-6.55
X8.0Y-6.65
X8.0Y-6.75
X8.0Y-6.85
X8.0Y-6.95
X8.0Y-7.05
X8.0Y-7.15
X8.0Y-7.25
X8.0Y-7.35
X8.0Y-7.45
T3
X1.7Y-7.8
X1.75Y-7.7
X1.8Y-7.8
X1.85Y-7.7
X1.9Y-7.8
X1.95Y-7.7
X2.0Y-7.8
X2.05Y-7.7
X2.45Y-7.8
X2.5Y-7.7
X2.55Y-7.8
X2.6Y-7.7
X2.65Y-7.8
X2.7Y-7.7
X2.75Y-7.8
X2.8Y-7.7
X3.2Y-7.8
X3.25Y-7.7
X3.3Y-7.8
X3.35Y-7.7
X3.4Y-7.8
X3.45Y-7.7
X3.5Y-7.8
X3.55Y-4.95
X3.55Y-7.7
X3.6Y-4.85
X3.65Y-4.95
X3.7Y-4.85
X3.75Y-4.95
X3.8Y-4.85
X3.85Y-4.95
X3.9Y-4.85
X3.95Y-7.8
X4.0Y-7.7
X4.05Y-7.8
X4.1Y-7.7
X4.15Y-7.8
X4.2Y-7.7
X4.25Y-7.8
X4.3Y-4.95
X4.3Y-7.7
X4.35Y-4.85
X4.4Y-4.95
X4.45Y-4.85
X4.5Y-4.95
X4.55Y-4.85
X4.6Y-4.95
X4.65Y-4.85
X4.7Y-7.8
X4.75Y-7.7
X4.8Y-7.8
X4.85Y-7.7
X4.9Y-7.8
X4.95Y-7.7
X5.0Y-7.8
X5.05Y-4.95
X5.05Y-7.7
X5.1Y-4.85
X5.15Y-4.95
X5.2Y-4.85
X5.25Y-4.95
X5.3Y-4.85
X5.35Y-4.95
X5.4Y-4.85
X5.45Y-7.8
X5.5Y-7.7
X5.55Y-7.8
X5.6Y-7.7
X5.65Y-7.8
X5.7Y-7.7
X5.75Y-7.8
X5.8Y-4.95
X5.8Y-7.7
X5.85Y-4.85
X5.9Y-4.95
X5.95Y-4.85
X6.0Y-4.95
X6.05Y-4.85
X6.1Y-4.95
X6.15Y-4.85
X6.2Y-7.8
X6.25Y-7.7
X6.3Y-7.8
X6.35Y-7.7
X6.4Y-7.8
X6.45Y-7.7
X6.5Y-7.8
X6.55Y-4.95
X6.55Y-7.7
X6.6Y-4.85
X6.65Y-4.95
X6.7Y-4.85
X6.75Y-4.95
X6.8Y-4.85
X6.85Y-4.95
X6.9Y-4.85
X6.95Y-7.8
X7.0Y-7.7
X7.05Y-7.8
X7.1Y-7.7
X7.15Y-7.8
X7.2Y-7.7
X7.25Y-7.8
X7.3Y-4.95
X7.3Y-7.7
X7.35Y-4.85
X7.4Y-4.95
X7.45Y-4.85
X7.5Y-4.95
X7.55Y-4.85
X7.6Y-4.95
X7.65Y-4.85
X7.7Y-7.8
X7.75Y-7.7
X7.8Y-7.8
X7.85Y-7.7
X7.9Y-7.8
X7.95Y-7.7
X8.0Y-7.8
X8.05Y-7.7
T4
X2.3Y-4.5
X2.3Y-4.6
X2.3Y-4.7
X2.3Y-4.8
X2.3Y-4.9
X2.3Y-5.0
X2.3Y-5.1
X2.3Y-5.2
X2.3Y-5.3
X2.3Y-5.4
X2.3Y-5.5
X2.3Y-5.6
X2.3Y-5.7
X2.3Y-5.8
X2.3Y-5.9
X2.9Y-4.5
X2.9Y-4.6
X2.9Y-4.7
X2.9Y-4.8
X2.9Y-4.9
X2.9Y-5.0
X2.9Y-5.1
X2.9Y-5.2
X2.9Y-5.3
X2.9Y-5.4
X2.9Y-5.5
X2.9Y-5.6
X2.9Y-5.7
X2.9Y-5.8
X2.9Y-5.9
T5
X1.6Y-5.5516
X1.6Y-5.7484
T6
X1.5691Y-8.1701
X2.1809Y-8.1701
X2.3191Y-8.1701
X2.9309Y-8.1701
X3.0691Y-8.1701
X3.4191Y-4.4799
X3.6809Y-8.1701
X3.8191Y-8.1701
X4.0309Y-4.4799
X4.1691Y-4.4799
X4.4309Y-8.1701
X4.5691Y-8.1701
X4.7809Y-4.4799
X4.9191Y-4.4799
X5.1809Y-8.1701
X5.3191Y-8.1701
X5.5309Y-4.4799
X5.6691Y-4.4799
X5.9309Y-8.1701
X6.0691Y-8.1701
X6.2809Y-4.4799
X6.4191Y-4.4799
X6.6809Y-8.1701
X6.8191Y-8.1701
X7.0309Y-4.4799
X7.1691Y-4.4799
X7.4309Y-8.1701
X7.5691Y-8.1701
X7.7809Y-4.4799
X8.1809Y-8.1701
T0
M30
