%TF.GenerationSoftware,KiCad,Pcbnew,(5.1.10)-1*%
%TF.CreationDate,2021-12-15T14:13:15+00:00*%
%TF.ProjectId,SCOREBOARD,53434f52-4542-44f4-9152-442e6b696361,rev?*%
%TF.SameCoordinates,Original*%
%TF.FileFunction,Legend,Top*%
%TF.FilePolarity,Positive*%
%FSLAX46Y46*%
G04 Gerber Fmt 4.6, Leading zero omitted, Abs format (unit mm)*
G04 Created by KiCad (PCBNEW (5.1.10)-1) date 2021-12-15 14:13:15*
%MOMM*%
%LPD*%
G01*
G04 APERTURE LIST*
%ADD10C,0.375000*%
%ADD11C,0.500000*%
%ADD12C,0.120000*%
%ADD13C,0.150000*%
G04 APERTURE END LIST*
D10*
X31877142Y-145300000D02*
X31734285Y-145228571D01*
X31520000Y-145228571D01*
X31305714Y-145300000D01*
X31162857Y-145442857D01*
X31091428Y-145585714D01*
X31020000Y-145871428D01*
X31020000Y-146085714D01*
X31091428Y-146371428D01*
X31162857Y-146514285D01*
X31305714Y-146657142D01*
X31520000Y-146728571D01*
X31662857Y-146728571D01*
X31877142Y-146657142D01*
X31948571Y-146585714D01*
X31948571Y-146085714D01*
X31662857Y-146085714D01*
X32591428Y-146728571D02*
X32591428Y-145228571D01*
X33448571Y-146728571D01*
X33448571Y-145228571D01*
X34162857Y-146728571D02*
X34162857Y-145228571D01*
X34520000Y-145228571D01*
X34734285Y-145300000D01*
X34877142Y-145442857D01*
X34948571Y-145585714D01*
X35020000Y-145871428D01*
X35020000Y-146085714D01*
X34948571Y-146371428D01*
X34877142Y-146514285D01*
X34734285Y-146657142D01*
X34520000Y-146728571D01*
X34162857Y-146728571D01*
X30377142Y-141077142D02*
X31520000Y-141077142D01*
X30948571Y-141648571D02*
X30948571Y-140505714D01*
X33020000Y-141648571D02*
X32162857Y-141648571D01*
X32591428Y-141648571D02*
X32591428Y-140148571D01*
X32448571Y-140362857D01*
X32305714Y-140505714D01*
X32162857Y-140577142D01*
X33591428Y-140291428D02*
X33662857Y-140220000D01*
X33805714Y-140148571D01*
X34162857Y-140148571D01*
X34305714Y-140220000D01*
X34377142Y-140291428D01*
X34448571Y-140434285D01*
X34448571Y-140577142D01*
X34377142Y-140791428D01*
X33520000Y-141648571D01*
X34448571Y-141648571D01*
X34877142Y-140148571D02*
X35377142Y-141648571D01*
X35877142Y-140148571D01*
D11*
X50744285Y-139872857D02*
X50887142Y-139444285D01*
X50887142Y-138730000D01*
X50744285Y-138444285D01*
X50601428Y-138301428D01*
X50315714Y-138158571D01*
X50030000Y-138158571D01*
X49744285Y-138301428D01*
X49601428Y-138444285D01*
X49458571Y-138730000D01*
X49315714Y-139301428D01*
X49172857Y-139587142D01*
X49030000Y-139730000D01*
X48744285Y-139872857D01*
X48458571Y-139872857D01*
X48172857Y-139730000D01*
X48030000Y-139587142D01*
X47887142Y-139301428D01*
X47887142Y-138587142D01*
X48030000Y-138158571D01*
X50601428Y-135158571D02*
X50744285Y-135301428D01*
X50887142Y-135730000D01*
X50887142Y-136015714D01*
X50744285Y-136444285D01*
X50458571Y-136730000D01*
X50172857Y-136872857D01*
X49601428Y-137015714D01*
X49172857Y-137015714D01*
X48601428Y-136872857D01*
X48315714Y-136730000D01*
X48030000Y-136444285D01*
X47887142Y-136015714D01*
X47887142Y-135730000D01*
X48030000Y-135301428D01*
X48172857Y-135158571D01*
X47887142Y-133301428D02*
X47887142Y-132730000D01*
X48030000Y-132444285D01*
X48315714Y-132158571D01*
X48887142Y-132015714D01*
X49887142Y-132015714D01*
X50458571Y-132158571D01*
X50744285Y-132444285D01*
X50887142Y-132730000D01*
X50887142Y-133301428D01*
X50744285Y-133587142D01*
X50458571Y-133872857D01*
X49887142Y-134015714D01*
X48887142Y-134015714D01*
X48315714Y-133872857D01*
X48030000Y-133587142D01*
X47887142Y-133301428D01*
X50887142Y-129015714D02*
X49458571Y-130015714D01*
X50887142Y-130730000D02*
X47887142Y-130730000D01*
X47887142Y-129587142D01*
X48030000Y-129301428D01*
X48172857Y-129158571D01*
X48458571Y-129015714D01*
X48887142Y-129015714D01*
X49172857Y-129158571D01*
X49315714Y-129301428D01*
X49458571Y-129587142D01*
X49458571Y-130730000D01*
X49315714Y-127730000D02*
X49315714Y-126730000D01*
X50887142Y-126301428D02*
X50887142Y-127730000D01*
X47887142Y-127730000D01*
X47887142Y-126301428D01*
X49315714Y-124015714D02*
X49458571Y-123587142D01*
X49601428Y-123444285D01*
X49887142Y-123301428D01*
X50315714Y-123301428D01*
X50601428Y-123444285D01*
X50744285Y-123587142D01*
X50887142Y-123872857D01*
X50887142Y-125015714D01*
X47887142Y-125015714D01*
X47887142Y-124015714D01*
X48030000Y-123730000D01*
X48172857Y-123587142D01*
X48458571Y-123444285D01*
X48744285Y-123444285D01*
X49030000Y-123587142D01*
X49172857Y-123730000D01*
X49315714Y-124015714D01*
X49315714Y-125015714D01*
X47887142Y-121444285D02*
X47887142Y-120872857D01*
X48030000Y-120587142D01*
X48315714Y-120301428D01*
X48887142Y-120158571D01*
X49887142Y-120158571D01*
X50458571Y-120301428D01*
X50744285Y-120587142D01*
X50887142Y-120872857D01*
X50887142Y-121444285D01*
X50744285Y-121730000D01*
X50458571Y-122015714D01*
X49887142Y-122158571D01*
X48887142Y-122158571D01*
X48315714Y-122015714D01*
X48030000Y-121730000D01*
X47887142Y-121444285D01*
X50030000Y-119015714D02*
X50030000Y-117587142D01*
X50887142Y-119301428D02*
X47887142Y-118301428D01*
X50887142Y-117301428D01*
X50887142Y-114587142D02*
X49458571Y-115587142D01*
X50887142Y-116301428D02*
X47887142Y-116301428D01*
X47887142Y-115158571D01*
X48030000Y-114872857D01*
X48172857Y-114730000D01*
X48458571Y-114587142D01*
X48887142Y-114587142D01*
X49172857Y-114730000D01*
X49315714Y-114872857D01*
X49458571Y-115158571D01*
X49458571Y-116301428D01*
X50887142Y-113301428D02*
X47887142Y-113301428D01*
X47887142Y-112587142D01*
X48030000Y-112158571D01*
X48315714Y-111872857D01*
X48601428Y-111730000D01*
X49172857Y-111587142D01*
X49601428Y-111587142D01*
X50172857Y-111730000D01*
X50458571Y-111872857D01*
X50744285Y-112158571D01*
X50887142Y-112587142D01*
X50887142Y-113301428D01*
D12*
%TO.C,U15*%
X96250000Y-156270000D02*
X97900000Y-156270000D01*
X97900000Y-156270000D02*
X97900000Y-130750000D01*
X97900000Y-130750000D02*
X92600000Y-130750000D01*
X92600000Y-130750000D02*
X92600000Y-156270000D01*
X92600000Y-156270000D02*
X94250000Y-156270000D01*
X94250000Y-156270000D02*
G75*
G02*
X96250000Y-156270000I1000000J0D01*
G01*
%TO.C,U14*%
X115300000Y-156270000D02*
X116950000Y-156270000D01*
X116950000Y-156270000D02*
X116950000Y-130750000D01*
X116950000Y-130750000D02*
X111650000Y-130750000D01*
X111650000Y-130750000D02*
X111650000Y-156270000D01*
X111650000Y-156270000D02*
X113300000Y-156270000D01*
X113300000Y-156270000D02*
G75*
G02*
X115300000Y-156270000I1000000J0D01*
G01*
%TO.C,U13*%
X134350000Y-156270000D02*
X136000000Y-156270000D01*
X136000000Y-156270000D02*
X136000000Y-130750000D01*
X136000000Y-130750000D02*
X130700000Y-130750000D01*
X130700000Y-130750000D02*
X130700000Y-156270000D01*
X130700000Y-156270000D02*
X132350000Y-156270000D01*
X132350000Y-156270000D02*
G75*
G02*
X134350000Y-156270000I1000000J0D01*
G01*
%TO.C,U12*%
X153400000Y-156270000D02*
X155050000Y-156270000D01*
X155050000Y-156270000D02*
X155050000Y-130750000D01*
X155050000Y-130750000D02*
X149750000Y-130750000D01*
X149750000Y-130750000D02*
X149750000Y-156270000D01*
X149750000Y-156270000D02*
X151400000Y-156270000D01*
X151400000Y-156270000D02*
G75*
G02*
X153400000Y-156270000I1000000J0D01*
G01*
%TO.C,U11*%
X172450000Y-156270000D02*
X174100000Y-156270000D01*
X174100000Y-156270000D02*
X174100000Y-130750000D01*
X174100000Y-130750000D02*
X168800000Y-130750000D01*
X168800000Y-130750000D02*
X168800000Y-156270000D01*
X168800000Y-156270000D02*
X170450000Y-156270000D01*
X170450000Y-156270000D02*
G75*
G02*
X172450000Y-156270000I1000000J0D01*
G01*
%TO.C,U10*%
X191500000Y-156270000D02*
X193150000Y-156270000D01*
X193150000Y-156270000D02*
X193150000Y-130750000D01*
X193150000Y-130750000D02*
X187850000Y-130750000D01*
X187850000Y-130750000D02*
X187850000Y-156270000D01*
X187850000Y-156270000D02*
X189500000Y-156270000D01*
X189500000Y-156270000D02*
G75*
G02*
X191500000Y-156270000I1000000J0D01*
G01*
%TO.C,U9*%
X198390000Y-165040000D02*
X196740000Y-165040000D01*
X196740000Y-165040000D02*
X196740000Y-190560000D01*
X196740000Y-190560000D02*
X202040000Y-190560000D01*
X202040000Y-190560000D02*
X202040000Y-165040000D01*
X202040000Y-165040000D02*
X200390000Y-165040000D01*
X200390000Y-165040000D02*
G75*
G02*
X198390000Y-165040000I-1000000J0D01*
G01*
%TO.C,U8*%
X179340000Y-165040000D02*
X177690000Y-165040000D01*
X177690000Y-165040000D02*
X177690000Y-190560000D01*
X177690000Y-190560000D02*
X182990000Y-190560000D01*
X182990000Y-190560000D02*
X182990000Y-165040000D01*
X182990000Y-165040000D02*
X181340000Y-165040000D01*
X181340000Y-165040000D02*
G75*
G02*
X179340000Y-165040000I-1000000J0D01*
G01*
%TO.C,U7*%
X160290000Y-165040000D02*
X158640000Y-165040000D01*
X158640000Y-165040000D02*
X158640000Y-190560000D01*
X158640000Y-190560000D02*
X163940000Y-190560000D01*
X163940000Y-190560000D02*
X163940000Y-165040000D01*
X163940000Y-165040000D02*
X162290000Y-165040000D01*
X162290000Y-165040000D02*
G75*
G02*
X160290000Y-165040000I-1000000J0D01*
G01*
%TO.C,U6*%
X141240000Y-165040000D02*
X139590000Y-165040000D01*
X139590000Y-165040000D02*
X139590000Y-190560000D01*
X139590000Y-190560000D02*
X144890000Y-190560000D01*
X144890000Y-190560000D02*
X144890000Y-165040000D01*
X144890000Y-165040000D02*
X143240000Y-165040000D01*
X143240000Y-165040000D02*
G75*
G02*
X141240000Y-165040000I-1000000J0D01*
G01*
%TO.C,U5*%
X122190000Y-165040000D02*
X120540000Y-165040000D01*
X120540000Y-165040000D02*
X120540000Y-190560000D01*
X120540000Y-190560000D02*
X125840000Y-190560000D01*
X125840000Y-190560000D02*
X125840000Y-165040000D01*
X125840000Y-165040000D02*
X124190000Y-165040000D01*
X124190000Y-165040000D02*
G75*
G02*
X122190000Y-165040000I-1000000J0D01*
G01*
%TO.C,U4*%
X103140000Y-165040000D02*
X101490000Y-165040000D01*
X101490000Y-165040000D02*
X101490000Y-190560000D01*
X101490000Y-190560000D02*
X106790000Y-190560000D01*
X106790000Y-190560000D02*
X106790000Y-165040000D01*
X106790000Y-165040000D02*
X105140000Y-165040000D01*
X105140000Y-165040000D02*
G75*
G02*
X103140000Y-165040000I-1000000J0D01*
G01*
%TO.C,U3*%
X84090000Y-165040000D02*
X82440000Y-165040000D01*
X82440000Y-165040000D02*
X82440000Y-190560000D01*
X82440000Y-190560000D02*
X87740000Y-190560000D01*
X87740000Y-190560000D02*
X87740000Y-165040000D01*
X87740000Y-165040000D02*
X86090000Y-165040000D01*
X86090000Y-165040000D02*
G75*
G02*
X84090000Y-165040000I-1000000J0D01*
G01*
%TO.C,U2*%
X65040000Y-165040000D02*
X63390000Y-165040000D01*
X63390000Y-165040000D02*
X63390000Y-190560000D01*
X63390000Y-190560000D02*
X68690000Y-190560000D01*
X68690000Y-190560000D02*
X68690000Y-165040000D01*
X68690000Y-165040000D02*
X67040000Y-165040000D01*
X67040000Y-165040000D02*
G75*
G02*
X65040000Y-165040000I-1000000J0D01*
G01*
%TO.C,U1*%
X45990000Y-165040000D02*
X44340000Y-165040000D01*
X44340000Y-165040000D02*
X44340000Y-190560000D01*
X44340000Y-190560000D02*
X49640000Y-190560000D01*
X49640000Y-190560000D02*
X49640000Y-165040000D01*
X49640000Y-165040000D02*
X47990000Y-165040000D01*
X47990000Y-165040000D02*
G75*
G02*
X45990000Y-165040000I-1000000J0D01*
G01*
%TO.C,J1*%
X55635000Y-193840000D02*
X55635000Y-205770000D01*
X55635000Y-193840000D02*
X39615000Y-193840000D01*
X39615000Y-193840000D02*
X39615000Y-205770000D01*
X55635000Y-212710000D02*
X39615000Y-212710000D01*
X55635000Y-209270000D02*
X55635000Y-212710000D01*
X39247000Y-198120000D02*
X38739000Y-197612000D01*
X38739000Y-197612000D02*
X38739000Y-198628000D01*
X38739000Y-198628000D02*
X39247000Y-198120000D01*
X39615000Y-209270000D02*
X39615000Y-212710000D01*
%TO.C,J15*%
X86605000Y-127470000D02*
X86605000Y-115540000D01*
X86605000Y-127470000D02*
X102625000Y-127470000D01*
X102625000Y-127470000D02*
X102625000Y-115540000D01*
X86605000Y-108600000D02*
X102625000Y-108600000D01*
X86605000Y-112040000D02*
X86605000Y-108600000D01*
X102993000Y-123190000D02*
X103501000Y-123698000D01*
X103501000Y-123698000D02*
X103501000Y-122682000D01*
X103501000Y-122682000D02*
X102993000Y-123190000D01*
X102625000Y-112040000D02*
X102625000Y-108600000D01*
%TO.C,J14*%
X121675000Y-112040000D02*
X121675000Y-108600000D01*
X122551000Y-122682000D02*
X122043000Y-123190000D01*
X122551000Y-123698000D02*
X122551000Y-122682000D01*
X122043000Y-123190000D02*
X122551000Y-123698000D01*
X105655000Y-112040000D02*
X105655000Y-108600000D01*
X105655000Y-108600000D02*
X121675000Y-108600000D01*
X121675000Y-127470000D02*
X121675000Y-115540000D01*
X105655000Y-127470000D02*
X121675000Y-127470000D01*
X105655000Y-127470000D02*
X105655000Y-115540000D01*
%TO.C,J13*%
X140725000Y-112040000D02*
X140725000Y-108600000D01*
X141601000Y-122682000D02*
X141093000Y-123190000D01*
X141601000Y-123698000D02*
X141601000Y-122682000D01*
X141093000Y-123190000D02*
X141601000Y-123698000D01*
X124705000Y-112040000D02*
X124705000Y-108600000D01*
X124705000Y-108600000D02*
X140725000Y-108600000D01*
X140725000Y-127470000D02*
X140725000Y-115540000D01*
X124705000Y-127470000D02*
X140725000Y-127470000D01*
X124705000Y-127470000D02*
X124705000Y-115540000D01*
%TO.C,J12*%
X159775000Y-112040000D02*
X159775000Y-108600000D01*
X160651000Y-122682000D02*
X160143000Y-123190000D01*
X160651000Y-123698000D02*
X160651000Y-122682000D01*
X160143000Y-123190000D02*
X160651000Y-123698000D01*
X143755000Y-112040000D02*
X143755000Y-108600000D01*
X143755000Y-108600000D02*
X159775000Y-108600000D01*
X159775000Y-127470000D02*
X159775000Y-115540000D01*
X143755000Y-127470000D02*
X159775000Y-127470000D01*
X143755000Y-127470000D02*
X143755000Y-115540000D01*
%TO.C,J11*%
X178825000Y-112040000D02*
X178825000Y-108600000D01*
X179701000Y-122682000D02*
X179193000Y-123190000D01*
X179701000Y-123698000D02*
X179701000Y-122682000D01*
X179193000Y-123190000D02*
X179701000Y-123698000D01*
X162805000Y-112040000D02*
X162805000Y-108600000D01*
X162805000Y-108600000D02*
X178825000Y-108600000D01*
X178825000Y-127470000D02*
X178825000Y-115540000D01*
X162805000Y-127470000D02*
X178825000Y-127470000D01*
X162805000Y-127470000D02*
X162805000Y-115540000D01*
%TO.C,J10*%
X197875000Y-112040000D02*
X197875000Y-108600000D01*
X198751000Y-122682000D02*
X198243000Y-123190000D01*
X198751000Y-123698000D02*
X198751000Y-122682000D01*
X198243000Y-123190000D02*
X198751000Y-123698000D01*
X181855000Y-112040000D02*
X181855000Y-108600000D01*
X181855000Y-108600000D02*
X197875000Y-108600000D01*
X197875000Y-127470000D02*
X197875000Y-115540000D01*
X181855000Y-127470000D02*
X197875000Y-127470000D01*
X181855000Y-127470000D02*
X181855000Y-115540000D01*
%TO.C,J9*%
X192015000Y-209270000D02*
X192015000Y-212710000D01*
X191139000Y-198628000D02*
X191647000Y-198120000D01*
X191139000Y-197612000D02*
X191139000Y-198628000D01*
X191647000Y-198120000D02*
X191139000Y-197612000D01*
X208035000Y-209270000D02*
X208035000Y-212710000D01*
X208035000Y-212710000D02*
X192015000Y-212710000D01*
X192015000Y-193840000D02*
X192015000Y-205770000D01*
X208035000Y-193840000D02*
X192015000Y-193840000D01*
X208035000Y-193840000D02*
X208035000Y-205770000D01*
%TO.C,J8*%
X172965000Y-209270000D02*
X172965000Y-212710000D01*
X172089000Y-198628000D02*
X172597000Y-198120000D01*
X172089000Y-197612000D02*
X172089000Y-198628000D01*
X172597000Y-198120000D02*
X172089000Y-197612000D01*
X188985000Y-209270000D02*
X188985000Y-212710000D01*
X188985000Y-212710000D02*
X172965000Y-212710000D01*
X172965000Y-193840000D02*
X172965000Y-205770000D01*
X188985000Y-193840000D02*
X172965000Y-193840000D01*
X188985000Y-193840000D02*
X188985000Y-205770000D01*
%TO.C,J7*%
X153915000Y-209270000D02*
X153915000Y-212710000D01*
X153039000Y-198628000D02*
X153547000Y-198120000D01*
X153039000Y-197612000D02*
X153039000Y-198628000D01*
X153547000Y-198120000D02*
X153039000Y-197612000D01*
X169935000Y-209270000D02*
X169935000Y-212710000D01*
X169935000Y-212710000D02*
X153915000Y-212710000D01*
X153915000Y-193840000D02*
X153915000Y-205770000D01*
X169935000Y-193840000D02*
X153915000Y-193840000D01*
X169935000Y-193840000D02*
X169935000Y-205770000D01*
%TO.C,J6*%
X134865000Y-209270000D02*
X134865000Y-212710000D01*
X133989000Y-198628000D02*
X134497000Y-198120000D01*
X133989000Y-197612000D02*
X133989000Y-198628000D01*
X134497000Y-198120000D02*
X133989000Y-197612000D01*
X150885000Y-209270000D02*
X150885000Y-212710000D01*
X150885000Y-212710000D02*
X134865000Y-212710000D01*
X134865000Y-193840000D02*
X134865000Y-205770000D01*
X150885000Y-193840000D02*
X134865000Y-193840000D01*
X150885000Y-193840000D02*
X150885000Y-205770000D01*
%TO.C,J5*%
X115815000Y-209270000D02*
X115815000Y-212710000D01*
X114939000Y-198628000D02*
X115447000Y-198120000D01*
X114939000Y-197612000D02*
X114939000Y-198628000D01*
X115447000Y-198120000D02*
X114939000Y-197612000D01*
X131835000Y-209270000D02*
X131835000Y-212710000D01*
X131835000Y-212710000D02*
X115815000Y-212710000D01*
X115815000Y-193840000D02*
X115815000Y-205770000D01*
X131835000Y-193840000D02*
X115815000Y-193840000D01*
X131835000Y-193840000D02*
X131835000Y-205770000D01*
%TO.C,J4*%
X96765000Y-209270000D02*
X96765000Y-212710000D01*
X95889000Y-198628000D02*
X96397000Y-198120000D01*
X95889000Y-197612000D02*
X95889000Y-198628000D01*
X96397000Y-198120000D02*
X95889000Y-197612000D01*
X112785000Y-209270000D02*
X112785000Y-212710000D01*
X112785000Y-212710000D02*
X96765000Y-212710000D01*
X96765000Y-193840000D02*
X96765000Y-205770000D01*
X112785000Y-193840000D02*
X96765000Y-193840000D01*
X112785000Y-193840000D02*
X112785000Y-205770000D01*
%TO.C,J3*%
X93735000Y-193840000D02*
X93735000Y-205770000D01*
X93735000Y-193840000D02*
X77715000Y-193840000D01*
X77715000Y-193840000D02*
X77715000Y-205770000D01*
X93735000Y-212710000D02*
X77715000Y-212710000D01*
X93735000Y-209270000D02*
X93735000Y-212710000D01*
X77347000Y-198120000D02*
X76839000Y-197612000D01*
X76839000Y-197612000D02*
X76839000Y-198628000D01*
X76839000Y-198628000D02*
X77347000Y-198120000D01*
X77715000Y-209270000D02*
X77715000Y-212710000D01*
%TO.C,J2*%
X74685000Y-193840000D02*
X74685000Y-205770000D01*
X74685000Y-193840000D02*
X58665000Y-193840000D01*
X58665000Y-193840000D02*
X58665000Y-205770000D01*
X74685000Y-212710000D02*
X58665000Y-212710000D01*
X74685000Y-209270000D02*
X74685000Y-212710000D01*
X58297000Y-198120000D02*
X57789000Y-197612000D01*
X57789000Y-197612000D02*
X57789000Y-198628000D01*
X57789000Y-198628000D02*
X58297000Y-198120000D01*
X58665000Y-209270000D02*
X58665000Y-212710000D01*
%TO.C,C15*%
X91670000Y-161390000D02*
X91670000Y-158650000D01*
X98910000Y-161390000D02*
X98910000Y-158650000D01*
X98910000Y-158650000D02*
X91670000Y-158650000D01*
X98910000Y-161390000D02*
X91670000Y-161390000D01*
%TO.C,C14*%
X110720000Y-161390000D02*
X110720000Y-158650000D01*
X117960000Y-161390000D02*
X117960000Y-158650000D01*
X117960000Y-158650000D02*
X110720000Y-158650000D01*
X117960000Y-161390000D02*
X110720000Y-161390000D01*
%TO.C,C13*%
X129770000Y-161390000D02*
X129770000Y-158650000D01*
X137010000Y-161390000D02*
X137010000Y-158650000D01*
X137010000Y-158650000D02*
X129770000Y-158650000D01*
X137010000Y-161390000D02*
X129770000Y-161390000D01*
%TO.C,C12*%
X148820000Y-161390000D02*
X148820000Y-158650000D01*
X156060000Y-161390000D02*
X156060000Y-158650000D01*
X156060000Y-158650000D02*
X148820000Y-158650000D01*
X156060000Y-161390000D02*
X148820000Y-161390000D01*
%TO.C,C11*%
X167870000Y-161390000D02*
X167870000Y-158650000D01*
X175110000Y-161390000D02*
X175110000Y-158650000D01*
X175110000Y-158650000D02*
X167870000Y-158650000D01*
X175110000Y-161390000D02*
X167870000Y-161390000D01*
%TO.C,C10*%
X186920000Y-161390000D02*
X186920000Y-158650000D01*
X194160000Y-161390000D02*
X194160000Y-158650000D01*
X194160000Y-158650000D02*
X186920000Y-158650000D01*
X194160000Y-161390000D02*
X186920000Y-161390000D01*
%TO.C,C9*%
X202970000Y-159920000D02*
X202970000Y-162660000D01*
X195730000Y-159920000D02*
X195730000Y-162660000D01*
X195730000Y-162660000D02*
X202970000Y-162660000D01*
X195730000Y-159920000D02*
X202970000Y-159920000D01*
%TO.C,C8*%
X183920000Y-159920000D02*
X183920000Y-162660000D01*
X176680000Y-159920000D02*
X176680000Y-162660000D01*
X176680000Y-162660000D02*
X183920000Y-162660000D01*
X176680000Y-159920000D02*
X183920000Y-159920000D01*
%TO.C,C7*%
X164870000Y-159920000D02*
X164870000Y-162660000D01*
X157630000Y-159920000D02*
X157630000Y-162660000D01*
X157630000Y-162660000D02*
X164870000Y-162660000D01*
X157630000Y-159920000D02*
X164870000Y-159920000D01*
%TO.C,C6*%
X145820000Y-159920000D02*
X145820000Y-162660000D01*
X138580000Y-159920000D02*
X138580000Y-162660000D01*
X138580000Y-162660000D02*
X145820000Y-162660000D01*
X138580000Y-159920000D02*
X145820000Y-159920000D01*
%TO.C,C5*%
X126770000Y-159920000D02*
X126770000Y-162660000D01*
X119530000Y-159920000D02*
X119530000Y-162660000D01*
X119530000Y-162660000D02*
X126770000Y-162660000D01*
X119530000Y-159920000D02*
X126770000Y-159920000D01*
%TO.C,C4*%
X107720000Y-159920000D02*
X107720000Y-162660000D01*
X100480000Y-159920000D02*
X100480000Y-162660000D01*
X100480000Y-162660000D02*
X107720000Y-162660000D01*
X100480000Y-159920000D02*
X107720000Y-159920000D01*
%TO.C,C3*%
X88670000Y-159920000D02*
X88670000Y-162660000D01*
X81430000Y-159920000D02*
X81430000Y-162660000D01*
X81430000Y-162660000D02*
X88670000Y-162660000D01*
X81430000Y-159920000D02*
X88670000Y-159920000D01*
%TO.C,C2*%
X69620000Y-159920000D02*
X69620000Y-162660000D01*
X62380000Y-159920000D02*
X62380000Y-162660000D01*
X62380000Y-162660000D02*
X69620000Y-162660000D01*
X62380000Y-159920000D02*
X69620000Y-159920000D01*
%TO.C,C1*%
X50570000Y-159920000D02*
X50570000Y-162660000D01*
X43330000Y-159920000D02*
X43330000Y-162660000D01*
X43330000Y-162660000D02*
X50570000Y-162660000D01*
X43330000Y-159920000D02*
X50570000Y-159920000D01*
%TO.C,A1*%
X57020000Y-153800000D02*
X75060000Y-153800000D01*
X57020000Y-110360000D02*
X57020000Y-153800000D01*
X75060000Y-110360000D02*
X57020000Y-110360000D01*
X72390000Y-113030000D02*
X75060000Y-113030000D01*
X72390000Y-148590000D02*
X72390000Y-113030000D01*
X72390000Y-148590000D02*
X75060000Y-148590000D01*
X59690000Y-113030000D02*
X57020000Y-113030000D01*
X59690000Y-151130000D02*
X59690000Y-113030000D01*
X59690000Y-151130000D02*
X57020000Y-151130000D01*
X75060000Y-153800000D02*
X75060000Y-151130000D01*
X75060000Y-148590000D02*
X75060000Y-110360000D01*
X72390000Y-151130000D02*
X75060000Y-151130000D01*
X72390000Y-148590000D02*
X72390000Y-151130000D01*
%TO.C,MOUNT*%
D13*
X211074285Y-118562380D02*
X211074285Y-117562380D01*
X211407619Y-118276666D01*
X211740952Y-117562380D01*
X211740952Y-118562380D01*
X212407619Y-117562380D02*
X212598095Y-117562380D01*
X212693333Y-117610000D01*
X212788571Y-117705238D01*
X212836190Y-117895714D01*
X212836190Y-118229047D01*
X212788571Y-118419523D01*
X212693333Y-118514761D01*
X212598095Y-118562380D01*
X212407619Y-118562380D01*
X212312380Y-118514761D01*
X212217142Y-118419523D01*
X212169523Y-118229047D01*
X212169523Y-117895714D01*
X212217142Y-117705238D01*
X212312380Y-117610000D01*
X212407619Y-117562380D01*
X213264761Y-117562380D02*
X213264761Y-118371904D01*
X213312380Y-118467142D01*
X213360000Y-118514761D01*
X213455238Y-118562380D01*
X213645714Y-118562380D01*
X213740952Y-118514761D01*
X213788571Y-118467142D01*
X213836190Y-118371904D01*
X213836190Y-117562380D01*
X214312380Y-118562380D02*
X214312380Y-117562380D01*
X214883809Y-118562380D01*
X214883809Y-117562380D01*
X215217142Y-117562380D02*
X215788571Y-117562380D01*
X215502857Y-118562380D02*
X215502857Y-117562380D01*
X32004285Y-118562380D02*
X32004285Y-117562380D01*
X32337619Y-118276666D01*
X32670952Y-117562380D01*
X32670952Y-118562380D01*
X33337619Y-117562380D02*
X33528095Y-117562380D01*
X33623333Y-117610000D01*
X33718571Y-117705238D01*
X33766190Y-117895714D01*
X33766190Y-118229047D01*
X33718571Y-118419523D01*
X33623333Y-118514761D01*
X33528095Y-118562380D01*
X33337619Y-118562380D01*
X33242380Y-118514761D01*
X33147142Y-118419523D01*
X33099523Y-118229047D01*
X33099523Y-117895714D01*
X33147142Y-117705238D01*
X33242380Y-117610000D01*
X33337619Y-117562380D01*
X34194761Y-117562380D02*
X34194761Y-118371904D01*
X34242380Y-118467142D01*
X34290000Y-118514761D01*
X34385238Y-118562380D01*
X34575714Y-118562380D01*
X34670952Y-118514761D01*
X34718571Y-118467142D01*
X34766190Y-118371904D01*
X34766190Y-117562380D01*
X35242380Y-118562380D02*
X35242380Y-117562380D01*
X35813809Y-118562380D01*
X35813809Y-117562380D01*
X36147142Y-117562380D02*
X36718571Y-117562380D01*
X36432857Y-118562380D02*
X36432857Y-117562380D01*
X32004285Y-203262380D02*
X32004285Y-202262380D01*
X32337619Y-202976666D01*
X32670952Y-202262380D01*
X32670952Y-203262380D01*
X33337619Y-202262380D02*
X33528095Y-202262380D01*
X33623333Y-202310000D01*
X33718571Y-202405238D01*
X33766190Y-202595714D01*
X33766190Y-202929047D01*
X33718571Y-203119523D01*
X33623333Y-203214761D01*
X33528095Y-203262380D01*
X33337619Y-203262380D01*
X33242380Y-203214761D01*
X33147142Y-203119523D01*
X33099523Y-202929047D01*
X33099523Y-202595714D01*
X33147142Y-202405238D01*
X33242380Y-202310000D01*
X33337619Y-202262380D01*
X34194761Y-202262380D02*
X34194761Y-203071904D01*
X34242380Y-203167142D01*
X34290000Y-203214761D01*
X34385238Y-203262380D01*
X34575714Y-203262380D01*
X34670952Y-203214761D01*
X34718571Y-203167142D01*
X34766190Y-203071904D01*
X34766190Y-202262380D01*
X35242380Y-203262380D02*
X35242380Y-202262380D01*
X35813809Y-203262380D01*
X35813809Y-202262380D01*
X36147142Y-202262380D02*
X36718571Y-202262380D01*
X36432857Y-203262380D02*
X36432857Y-202262380D01*
%TO.C,U15*%
X94011904Y-156722380D02*
X94011904Y-157531904D01*
X94059523Y-157627142D01*
X94107142Y-157674761D01*
X94202380Y-157722380D01*
X94392857Y-157722380D01*
X94488095Y-157674761D01*
X94535714Y-157627142D01*
X94583333Y-157531904D01*
X94583333Y-156722380D01*
X95583333Y-157722380D02*
X95011904Y-157722380D01*
X95297619Y-157722380D02*
X95297619Y-156722380D01*
X95202380Y-156865238D01*
X95107142Y-156960476D01*
X95011904Y-157008095D01*
X96488095Y-156722380D02*
X96011904Y-156722380D01*
X95964285Y-157198571D01*
X96011904Y-157150952D01*
X96107142Y-157103333D01*
X96345238Y-157103333D01*
X96440476Y-157150952D01*
X96488095Y-157198571D01*
X96535714Y-157293809D01*
X96535714Y-157531904D01*
X96488095Y-157627142D01*
X96440476Y-157674761D01*
X96345238Y-157722380D01*
X96107142Y-157722380D01*
X96011904Y-157674761D01*
X95964285Y-157627142D01*
%TO.C,U14*%
X113061904Y-156722380D02*
X113061904Y-157531904D01*
X113109523Y-157627142D01*
X113157142Y-157674761D01*
X113252380Y-157722380D01*
X113442857Y-157722380D01*
X113538095Y-157674761D01*
X113585714Y-157627142D01*
X113633333Y-157531904D01*
X113633333Y-156722380D01*
X114633333Y-157722380D02*
X114061904Y-157722380D01*
X114347619Y-157722380D02*
X114347619Y-156722380D01*
X114252380Y-156865238D01*
X114157142Y-156960476D01*
X114061904Y-157008095D01*
X115490476Y-157055714D02*
X115490476Y-157722380D01*
X115252380Y-156674761D02*
X115014285Y-157389047D01*
X115633333Y-157389047D01*
%TO.C,U13*%
X132111904Y-156722380D02*
X132111904Y-157531904D01*
X132159523Y-157627142D01*
X132207142Y-157674761D01*
X132302380Y-157722380D01*
X132492857Y-157722380D01*
X132588095Y-157674761D01*
X132635714Y-157627142D01*
X132683333Y-157531904D01*
X132683333Y-156722380D01*
X133683333Y-157722380D02*
X133111904Y-157722380D01*
X133397619Y-157722380D02*
X133397619Y-156722380D01*
X133302380Y-156865238D01*
X133207142Y-156960476D01*
X133111904Y-157008095D01*
X134016666Y-156722380D02*
X134635714Y-156722380D01*
X134302380Y-157103333D01*
X134445238Y-157103333D01*
X134540476Y-157150952D01*
X134588095Y-157198571D01*
X134635714Y-157293809D01*
X134635714Y-157531904D01*
X134588095Y-157627142D01*
X134540476Y-157674761D01*
X134445238Y-157722380D01*
X134159523Y-157722380D01*
X134064285Y-157674761D01*
X134016666Y-157627142D01*
%TO.C,U12*%
X151161904Y-156722380D02*
X151161904Y-157531904D01*
X151209523Y-157627142D01*
X151257142Y-157674761D01*
X151352380Y-157722380D01*
X151542857Y-157722380D01*
X151638095Y-157674761D01*
X151685714Y-157627142D01*
X151733333Y-157531904D01*
X151733333Y-156722380D01*
X152733333Y-157722380D02*
X152161904Y-157722380D01*
X152447619Y-157722380D02*
X152447619Y-156722380D01*
X152352380Y-156865238D01*
X152257142Y-156960476D01*
X152161904Y-157008095D01*
X153114285Y-156817619D02*
X153161904Y-156770000D01*
X153257142Y-156722380D01*
X153495238Y-156722380D01*
X153590476Y-156770000D01*
X153638095Y-156817619D01*
X153685714Y-156912857D01*
X153685714Y-157008095D01*
X153638095Y-157150952D01*
X153066666Y-157722380D01*
X153685714Y-157722380D01*
%TO.C,U11*%
X170211904Y-156722380D02*
X170211904Y-157531904D01*
X170259523Y-157627142D01*
X170307142Y-157674761D01*
X170402380Y-157722380D01*
X170592857Y-157722380D01*
X170688095Y-157674761D01*
X170735714Y-157627142D01*
X170783333Y-157531904D01*
X170783333Y-156722380D01*
X171783333Y-157722380D02*
X171211904Y-157722380D01*
X171497619Y-157722380D02*
X171497619Y-156722380D01*
X171402380Y-156865238D01*
X171307142Y-156960476D01*
X171211904Y-157008095D01*
X172735714Y-157722380D02*
X172164285Y-157722380D01*
X172450000Y-157722380D02*
X172450000Y-156722380D01*
X172354761Y-156865238D01*
X172259523Y-156960476D01*
X172164285Y-157008095D01*
%TO.C,U10*%
X189261904Y-156722380D02*
X189261904Y-157531904D01*
X189309523Y-157627142D01*
X189357142Y-157674761D01*
X189452380Y-157722380D01*
X189642857Y-157722380D01*
X189738095Y-157674761D01*
X189785714Y-157627142D01*
X189833333Y-157531904D01*
X189833333Y-156722380D01*
X190833333Y-157722380D02*
X190261904Y-157722380D01*
X190547619Y-157722380D02*
X190547619Y-156722380D01*
X190452380Y-156865238D01*
X190357142Y-156960476D01*
X190261904Y-157008095D01*
X191452380Y-156722380D02*
X191547619Y-156722380D01*
X191642857Y-156770000D01*
X191690476Y-156817619D01*
X191738095Y-156912857D01*
X191785714Y-157103333D01*
X191785714Y-157341428D01*
X191738095Y-157531904D01*
X191690476Y-157627142D01*
X191642857Y-157674761D01*
X191547619Y-157722380D01*
X191452380Y-157722380D01*
X191357142Y-157674761D01*
X191309523Y-157627142D01*
X191261904Y-157531904D01*
X191214285Y-157341428D01*
X191214285Y-157103333D01*
X191261904Y-156912857D01*
X191309523Y-156817619D01*
X191357142Y-156770000D01*
X191452380Y-156722380D01*
%TO.C,U9*%
X198628095Y-163492380D02*
X198628095Y-164301904D01*
X198675714Y-164397142D01*
X198723333Y-164444761D01*
X198818571Y-164492380D01*
X199009047Y-164492380D01*
X199104285Y-164444761D01*
X199151904Y-164397142D01*
X199199523Y-164301904D01*
X199199523Y-163492380D01*
X199723333Y-164492380D02*
X199913809Y-164492380D01*
X200009047Y-164444761D01*
X200056666Y-164397142D01*
X200151904Y-164254285D01*
X200199523Y-164063809D01*
X200199523Y-163682857D01*
X200151904Y-163587619D01*
X200104285Y-163540000D01*
X200009047Y-163492380D01*
X199818571Y-163492380D01*
X199723333Y-163540000D01*
X199675714Y-163587619D01*
X199628095Y-163682857D01*
X199628095Y-163920952D01*
X199675714Y-164016190D01*
X199723333Y-164063809D01*
X199818571Y-164111428D01*
X200009047Y-164111428D01*
X200104285Y-164063809D01*
X200151904Y-164016190D01*
X200199523Y-163920952D01*
%TO.C,U8*%
X179578095Y-163492380D02*
X179578095Y-164301904D01*
X179625714Y-164397142D01*
X179673333Y-164444761D01*
X179768571Y-164492380D01*
X179959047Y-164492380D01*
X180054285Y-164444761D01*
X180101904Y-164397142D01*
X180149523Y-164301904D01*
X180149523Y-163492380D01*
X180768571Y-163920952D02*
X180673333Y-163873333D01*
X180625714Y-163825714D01*
X180578095Y-163730476D01*
X180578095Y-163682857D01*
X180625714Y-163587619D01*
X180673333Y-163540000D01*
X180768571Y-163492380D01*
X180959047Y-163492380D01*
X181054285Y-163540000D01*
X181101904Y-163587619D01*
X181149523Y-163682857D01*
X181149523Y-163730476D01*
X181101904Y-163825714D01*
X181054285Y-163873333D01*
X180959047Y-163920952D01*
X180768571Y-163920952D01*
X180673333Y-163968571D01*
X180625714Y-164016190D01*
X180578095Y-164111428D01*
X180578095Y-164301904D01*
X180625714Y-164397142D01*
X180673333Y-164444761D01*
X180768571Y-164492380D01*
X180959047Y-164492380D01*
X181054285Y-164444761D01*
X181101904Y-164397142D01*
X181149523Y-164301904D01*
X181149523Y-164111428D01*
X181101904Y-164016190D01*
X181054285Y-163968571D01*
X180959047Y-163920952D01*
%TO.C,U7*%
X160528095Y-163492380D02*
X160528095Y-164301904D01*
X160575714Y-164397142D01*
X160623333Y-164444761D01*
X160718571Y-164492380D01*
X160909047Y-164492380D01*
X161004285Y-164444761D01*
X161051904Y-164397142D01*
X161099523Y-164301904D01*
X161099523Y-163492380D01*
X161480476Y-163492380D02*
X162147142Y-163492380D01*
X161718571Y-164492380D01*
%TO.C,U6*%
X141478095Y-163492380D02*
X141478095Y-164301904D01*
X141525714Y-164397142D01*
X141573333Y-164444761D01*
X141668571Y-164492380D01*
X141859047Y-164492380D01*
X141954285Y-164444761D01*
X142001904Y-164397142D01*
X142049523Y-164301904D01*
X142049523Y-163492380D01*
X142954285Y-163492380D02*
X142763809Y-163492380D01*
X142668571Y-163540000D01*
X142620952Y-163587619D01*
X142525714Y-163730476D01*
X142478095Y-163920952D01*
X142478095Y-164301904D01*
X142525714Y-164397142D01*
X142573333Y-164444761D01*
X142668571Y-164492380D01*
X142859047Y-164492380D01*
X142954285Y-164444761D01*
X143001904Y-164397142D01*
X143049523Y-164301904D01*
X143049523Y-164063809D01*
X143001904Y-163968571D01*
X142954285Y-163920952D01*
X142859047Y-163873333D01*
X142668571Y-163873333D01*
X142573333Y-163920952D01*
X142525714Y-163968571D01*
X142478095Y-164063809D01*
%TO.C,U5*%
X122428095Y-163492380D02*
X122428095Y-164301904D01*
X122475714Y-164397142D01*
X122523333Y-164444761D01*
X122618571Y-164492380D01*
X122809047Y-164492380D01*
X122904285Y-164444761D01*
X122951904Y-164397142D01*
X122999523Y-164301904D01*
X122999523Y-163492380D01*
X123951904Y-163492380D02*
X123475714Y-163492380D01*
X123428095Y-163968571D01*
X123475714Y-163920952D01*
X123570952Y-163873333D01*
X123809047Y-163873333D01*
X123904285Y-163920952D01*
X123951904Y-163968571D01*
X123999523Y-164063809D01*
X123999523Y-164301904D01*
X123951904Y-164397142D01*
X123904285Y-164444761D01*
X123809047Y-164492380D01*
X123570952Y-164492380D01*
X123475714Y-164444761D01*
X123428095Y-164397142D01*
%TO.C,U4*%
X103378095Y-163492380D02*
X103378095Y-164301904D01*
X103425714Y-164397142D01*
X103473333Y-164444761D01*
X103568571Y-164492380D01*
X103759047Y-164492380D01*
X103854285Y-164444761D01*
X103901904Y-164397142D01*
X103949523Y-164301904D01*
X103949523Y-163492380D01*
X104854285Y-163825714D02*
X104854285Y-164492380D01*
X104616190Y-163444761D02*
X104378095Y-164159047D01*
X104997142Y-164159047D01*
%TO.C,U3*%
X84328095Y-163492380D02*
X84328095Y-164301904D01*
X84375714Y-164397142D01*
X84423333Y-164444761D01*
X84518571Y-164492380D01*
X84709047Y-164492380D01*
X84804285Y-164444761D01*
X84851904Y-164397142D01*
X84899523Y-164301904D01*
X84899523Y-163492380D01*
X85280476Y-163492380D02*
X85899523Y-163492380D01*
X85566190Y-163873333D01*
X85709047Y-163873333D01*
X85804285Y-163920952D01*
X85851904Y-163968571D01*
X85899523Y-164063809D01*
X85899523Y-164301904D01*
X85851904Y-164397142D01*
X85804285Y-164444761D01*
X85709047Y-164492380D01*
X85423333Y-164492380D01*
X85328095Y-164444761D01*
X85280476Y-164397142D01*
%TO.C,U2*%
X65278095Y-163492380D02*
X65278095Y-164301904D01*
X65325714Y-164397142D01*
X65373333Y-164444761D01*
X65468571Y-164492380D01*
X65659047Y-164492380D01*
X65754285Y-164444761D01*
X65801904Y-164397142D01*
X65849523Y-164301904D01*
X65849523Y-163492380D01*
X66278095Y-163587619D02*
X66325714Y-163540000D01*
X66420952Y-163492380D01*
X66659047Y-163492380D01*
X66754285Y-163540000D01*
X66801904Y-163587619D01*
X66849523Y-163682857D01*
X66849523Y-163778095D01*
X66801904Y-163920952D01*
X66230476Y-164492380D01*
X66849523Y-164492380D01*
%TO.C,U1*%
X46228095Y-163492380D02*
X46228095Y-164301904D01*
X46275714Y-164397142D01*
X46323333Y-164444761D01*
X46418571Y-164492380D01*
X46609047Y-164492380D01*
X46704285Y-164444761D01*
X46751904Y-164397142D01*
X46799523Y-164301904D01*
X46799523Y-163492380D01*
X47799523Y-164492380D02*
X47228095Y-164492380D01*
X47513809Y-164492380D02*
X47513809Y-163492380D01*
X47418571Y-163635238D01*
X47323333Y-163730476D01*
X47228095Y-163778095D01*
%TO.C,MOUNT*%
X211074285Y-203262380D02*
X211074285Y-202262380D01*
X211407619Y-202976666D01*
X211740952Y-202262380D01*
X211740952Y-203262380D01*
X212407619Y-202262380D02*
X212598095Y-202262380D01*
X212693333Y-202310000D01*
X212788571Y-202405238D01*
X212836190Y-202595714D01*
X212836190Y-202929047D01*
X212788571Y-203119523D01*
X212693333Y-203214761D01*
X212598095Y-203262380D01*
X212407619Y-203262380D01*
X212312380Y-203214761D01*
X212217142Y-203119523D01*
X212169523Y-202929047D01*
X212169523Y-202595714D01*
X212217142Y-202405238D01*
X212312380Y-202310000D01*
X212407619Y-202262380D01*
X213264761Y-202262380D02*
X213264761Y-203071904D01*
X213312380Y-203167142D01*
X213360000Y-203214761D01*
X213455238Y-203262380D01*
X213645714Y-203262380D01*
X213740952Y-203214761D01*
X213788571Y-203167142D01*
X213836190Y-203071904D01*
X213836190Y-202262380D01*
X214312380Y-203262380D02*
X214312380Y-202262380D01*
X214883809Y-203262380D01*
X214883809Y-202262380D01*
X215217142Y-202262380D02*
X215788571Y-202262380D01*
X215502857Y-203262380D02*
X215502857Y-202262380D01*
%TO.C,J16*%
X42632380Y-144319523D02*
X43346666Y-144319523D01*
X43489523Y-144367142D01*
X43584761Y-144462380D01*
X43632380Y-144605238D01*
X43632380Y-144700476D01*
X43632380Y-143319523D02*
X43632380Y-143890952D01*
X43632380Y-143605238D02*
X42632380Y-143605238D01*
X42775238Y-143700476D01*
X42870476Y-143795714D01*
X42918095Y-143890952D01*
X42632380Y-142462380D02*
X42632380Y-142652857D01*
X42680000Y-142748095D01*
X42727619Y-142795714D01*
X42870476Y-142890952D01*
X43060952Y-142938571D01*
X43441904Y-142938571D01*
X43537142Y-142890952D01*
X43584761Y-142843333D01*
X43632380Y-142748095D01*
X43632380Y-142557619D01*
X43584761Y-142462380D01*
X43537142Y-142414761D01*
X43441904Y-142367142D01*
X43203809Y-142367142D01*
X43108571Y-142414761D01*
X43060952Y-142462380D01*
X43013333Y-142557619D01*
X43013333Y-142748095D01*
X43060952Y-142843333D01*
X43108571Y-142890952D01*
X43203809Y-142938571D01*
%TO.C,J1*%
X47291666Y-192232380D02*
X47291666Y-192946666D01*
X47244047Y-193089523D01*
X47148809Y-193184761D01*
X47005952Y-193232380D01*
X46910714Y-193232380D01*
X48291666Y-193232380D02*
X47720238Y-193232380D01*
X48005952Y-193232380D02*
X48005952Y-192232380D01*
X47910714Y-192375238D01*
X47815476Y-192470476D01*
X47720238Y-192518095D01*
%TO.C,J15*%
X93805476Y-127982380D02*
X93805476Y-128696666D01*
X93757857Y-128839523D01*
X93662619Y-128934761D01*
X93519761Y-128982380D01*
X93424523Y-128982380D01*
X94805476Y-128982380D02*
X94234047Y-128982380D01*
X94519761Y-128982380D02*
X94519761Y-127982380D01*
X94424523Y-128125238D01*
X94329285Y-128220476D01*
X94234047Y-128268095D01*
X95710238Y-127982380D02*
X95234047Y-127982380D01*
X95186428Y-128458571D01*
X95234047Y-128410952D01*
X95329285Y-128363333D01*
X95567380Y-128363333D01*
X95662619Y-128410952D01*
X95710238Y-128458571D01*
X95757857Y-128553809D01*
X95757857Y-128791904D01*
X95710238Y-128887142D01*
X95662619Y-128934761D01*
X95567380Y-128982380D01*
X95329285Y-128982380D01*
X95234047Y-128934761D01*
X95186428Y-128887142D01*
%TO.C,J14*%
X112855476Y-127982380D02*
X112855476Y-128696666D01*
X112807857Y-128839523D01*
X112712619Y-128934761D01*
X112569761Y-128982380D01*
X112474523Y-128982380D01*
X113855476Y-128982380D02*
X113284047Y-128982380D01*
X113569761Y-128982380D02*
X113569761Y-127982380D01*
X113474523Y-128125238D01*
X113379285Y-128220476D01*
X113284047Y-128268095D01*
X114712619Y-128315714D02*
X114712619Y-128982380D01*
X114474523Y-127934761D02*
X114236428Y-128649047D01*
X114855476Y-128649047D01*
%TO.C,J13*%
X131905476Y-127982380D02*
X131905476Y-128696666D01*
X131857857Y-128839523D01*
X131762619Y-128934761D01*
X131619761Y-128982380D01*
X131524523Y-128982380D01*
X132905476Y-128982380D02*
X132334047Y-128982380D01*
X132619761Y-128982380D02*
X132619761Y-127982380D01*
X132524523Y-128125238D01*
X132429285Y-128220476D01*
X132334047Y-128268095D01*
X133238809Y-127982380D02*
X133857857Y-127982380D01*
X133524523Y-128363333D01*
X133667380Y-128363333D01*
X133762619Y-128410952D01*
X133810238Y-128458571D01*
X133857857Y-128553809D01*
X133857857Y-128791904D01*
X133810238Y-128887142D01*
X133762619Y-128934761D01*
X133667380Y-128982380D01*
X133381666Y-128982380D01*
X133286428Y-128934761D01*
X133238809Y-128887142D01*
%TO.C,J12*%
X150955476Y-127982380D02*
X150955476Y-128696666D01*
X150907857Y-128839523D01*
X150812619Y-128934761D01*
X150669761Y-128982380D01*
X150574523Y-128982380D01*
X151955476Y-128982380D02*
X151384047Y-128982380D01*
X151669761Y-128982380D02*
X151669761Y-127982380D01*
X151574523Y-128125238D01*
X151479285Y-128220476D01*
X151384047Y-128268095D01*
X152336428Y-128077619D02*
X152384047Y-128030000D01*
X152479285Y-127982380D01*
X152717380Y-127982380D01*
X152812619Y-128030000D01*
X152860238Y-128077619D01*
X152907857Y-128172857D01*
X152907857Y-128268095D01*
X152860238Y-128410952D01*
X152288809Y-128982380D01*
X152907857Y-128982380D01*
%TO.C,J11*%
X170005476Y-127982380D02*
X170005476Y-128696666D01*
X169957857Y-128839523D01*
X169862619Y-128934761D01*
X169719761Y-128982380D01*
X169624523Y-128982380D01*
X171005476Y-128982380D02*
X170434047Y-128982380D01*
X170719761Y-128982380D02*
X170719761Y-127982380D01*
X170624523Y-128125238D01*
X170529285Y-128220476D01*
X170434047Y-128268095D01*
X171957857Y-128982380D02*
X171386428Y-128982380D01*
X171672142Y-128982380D02*
X171672142Y-127982380D01*
X171576904Y-128125238D01*
X171481666Y-128220476D01*
X171386428Y-128268095D01*
%TO.C,J10*%
X189055476Y-127982380D02*
X189055476Y-128696666D01*
X189007857Y-128839523D01*
X188912619Y-128934761D01*
X188769761Y-128982380D01*
X188674523Y-128982380D01*
X190055476Y-128982380D02*
X189484047Y-128982380D01*
X189769761Y-128982380D02*
X189769761Y-127982380D01*
X189674523Y-128125238D01*
X189579285Y-128220476D01*
X189484047Y-128268095D01*
X190674523Y-127982380D02*
X190769761Y-127982380D01*
X190865000Y-128030000D01*
X190912619Y-128077619D01*
X190960238Y-128172857D01*
X191007857Y-128363333D01*
X191007857Y-128601428D01*
X190960238Y-128791904D01*
X190912619Y-128887142D01*
X190865000Y-128934761D01*
X190769761Y-128982380D01*
X190674523Y-128982380D01*
X190579285Y-128934761D01*
X190531666Y-128887142D01*
X190484047Y-128791904D01*
X190436428Y-128601428D01*
X190436428Y-128363333D01*
X190484047Y-128172857D01*
X190531666Y-128077619D01*
X190579285Y-128030000D01*
X190674523Y-127982380D01*
%TO.C,J9*%
X199691666Y-192232380D02*
X199691666Y-192946666D01*
X199644047Y-193089523D01*
X199548809Y-193184761D01*
X199405952Y-193232380D01*
X199310714Y-193232380D01*
X200215476Y-193232380D02*
X200405952Y-193232380D01*
X200501190Y-193184761D01*
X200548809Y-193137142D01*
X200644047Y-192994285D01*
X200691666Y-192803809D01*
X200691666Y-192422857D01*
X200644047Y-192327619D01*
X200596428Y-192280000D01*
X200501190Y-192232380D01*
X200310714Y-192232380D01*
X200215476Y-192280000D01*
X200167857Y-192327619D01*
X200120238Y-192422857D01*
X200120238Y-192660952D01*
X200167857Y-192756190D01*
X200215476Y-192803809D01*
X200310714Y-192851428D01*
X200501190Y-192851428D01*
X200596428Y-192803809D01*
X200644047Y-192756190D01*
X200691666Y-192660952D01*
%TO.C,J8*%
X180641666Y-192232380D02*
X180641666Y-192946666D01*
X180594047Y-193089523D01*
X180498809Y-193184761D01*
X180355952Y-193232380D01*
X180260714Y-193232380D01*
X181260714Y-192660952D02*
X181165476Y-192613333D01*
X181117857Y-192565714D01*
X181070238Y-192470476D01*
X181070238Y-192422857D01*
X181117857Y-192327619D01*
X181165476Y-192280000D01*
X181260714Y-192232380D01*
X181451190Y-192232380D01*
X181546428Y-192280000D01*
X181594047Y-192327619D01*
X181641666Y-192422857D01*
X181641666Y-192470476D01*
X181594047Y-192565714D01*
X181546428Y-192613333D01*
X181451190Y-192660952D01*
X181260714Y-192660952D01*
X181165476Y-192708571D01*
X181117857Y-192756190D01*
X181070238Y-192851428D01*
X181070238Y-193041904D01*
X181117857Y-193137142D01*
X181165476Y-193184761D01*
X181260714Y-193232380D01*
X181451190Y-193232380D01*
X181546428Y-193184761D01*
X181594047Y-193137142D01*
X181641666Y-193041904D01*
X181641666Y-192851428D01*
X181594047Y-192756190D01*
X181546428Y-192708571D01*
X181451190Y-192660952D01*
%TO.C,J7*%
X161591666Y-192232380D02*
X161591666Y-192946666D01*
X161544047Y-193089523D01*
X161448809Y-193184761D01*
X161305952Y-193232380D01*
X161210714Y-193232380D01*
X161972619Y-192232380D02*
X162639285Y-192232380D01*
X162210714Y-193232380D01*
%TO.C,J6*%
X142541666Y-192232380D02*
X142541666Y-192946666D01*
X142494047Y-193089523D01*
X142398809Y-193184761D01*
X142255952Y-193232380D01*
X142160714Y-193232380D01*
X143446428Y-192232380D02*
X143255952Y-192232380D01*
X143160714Y-192280000D01*
X143113095Y-192327619D01*
X143017857Y-192470476D01*
X142970238Y-192660952D01*
X142970238Y-193041904D01*
X143017857Y-193137142D01*
X143065476Y-193184761D01*
X143160714Y-193232380D01*
X143351190Y-193232380D01*
X143446428Y-193184761D01*
X143494047Y-193137142D01*
X143541666Y-193041904D01*
X143541666Y-192803809D01*
X143494047Y-192708571D01*
X143446428Y-192660952D01*
X143351190Y-192613333D01*
X143160714Y-192613333D01*
X143065476Y-192660952D01*
X143017857Y-192708571D01*
X142970238Y-192803809D01*
%TO.C,J5*%
X123491666Y-192232380D02*
X123491666Y-192946666D01*
X123444047Y-193089523D01*
X123348809Y-193184761D01*
X123205952Y-193232380D01*
X123110714Y-193232380D01*
X124444047Y-192232380D02*
X123967857Y-192232380D01*
X123920238Y-192708571D01*
X123967857Y-192660952D01*
X124063095Y-192613333D01*
X124301190Y-192613333D01*
X124396428Y-192660952D01*
X124444047Y-192708571D01*
X124491666Y-192803809D01*
X124491666Y-193041904D01*
X124444047Y-193137142D01*
X124396428Y-193184761D01*
X124301190Y-193232380D01*
X124063095Y-193232380D01*
X123967857Y-193184761D01*
X123920238Y-193137142D01*
%TO.C,J4*%
X104441666Y-192232380D02*
X104441666Y-192946666D01*
X104394047Y-193089523D01*
X104298809Y-193184761D01*
X104155952Y-193232380D01*
X104060714Y-193232380D01*
X105346428Y-192565714D02*
X105346428Y-193232380D01*
X105108333Y-192184761D02*
X104870238Y-192899047D01*
X105489285Y-192899047D01*
%TO.C,J3*%
X85391666Y-192232380D02*
X85391666Y-192946666D01*
X85344047Y-193089523D01*
X85248809Y-193184761D01*
X85105952Y-193232380D01*
X85010714Y-193232380D01*
X85772619Y-192232380D02*
X86391666Y-192232380D01*
X86058333Y-192613333D01*
X86201190Y-192613333D01*
X86296428Y-192660952D01*
X86344047Y-192708571D01*
X86391666Y-192803809D01*
X86391666Y-193041904D01*
X86344047Y-193137142D01*
X86296428Y-193184761D01*
X86201190Y-193232380D01*
X85915476Y-193232380D01*
X85820238Y-193184761D01*
X85772619Y-193137142D01*
%TO.C,J2*%
X66341666Y-192232380D02*
X66341666Y-192946666D01*
X66294047Y-193089523D01*
X66198809Y-193184761D01*
X66055952Y-193232380D01*
X65960714Y-193232380D01*
X66770238Y-192327619D02*
X66817857Y-192280000D01*
X66913095Y-192232380D01*
X67151190Y-192232380D01*
X67246428Y-192280000D01*
X67294047Y-192327619D01*
X67341666Y-192422857D01*
X67341666Y-192518095D01*
X67294047Y-192660952D01*
X66722619Y-193232380D01*
X67341666Y-193232380D01*
%TO.C,C15*%
X94647142Y-162877142D02*
X94599523Y-162924761D01*
X94456666Y-162972380D01*
X94361428Y-162972380D01*
X94218571Y-162924761D01*
X94123333Y-162829523D01*
X94075714Y-162734285D01*
X94028095Y-162543809D01*
X94028095Y-162400952D01*
X94075714Y-162210476D01*
X94123333Y-162115238D01*
X94218571Y-162020000D01*
X94361428Y-161972380D01*
X94456666Y-161972380D01*
X94599523Y-162020000D01*
X94647142Y-162067619D01*
X95599523Y-162972380D02*
X95028095Y-162972380D01*
X95313809Y-162972380D02*
X95313809Y-161972380D01*
X95218571Y-162115238D01*
X95123333Y-162210476D01*
X95028095Y-162258095D01*
X96504285Y-161972380D02*
X96028095Y-161972380D01*
X95980476Y-162448571D01*
X96028095Y-162400952D01*
X96123333Y-162353333D01*
X96361428Y-162353333D01*
X96456666Y-162400952D01*
X96504285Y-162448571D01*
X96551904Y-162543809D01*
X96551904Y-162781904D01*
X96504285Y-162877142D01*
X96456666Y-162924761D01*
X96361428Y-162972380D01*
X96123333Y-162972380D01*
X96028095Y-162924761D01*
X95980476Y-162877142D01*
%TO.C,C14*%
X113697142Y-162877142D02*
X113649523Y-162924761D01*
X113506666Y-162972380D01*
X113411428Y-162972380D01*
X113268571Y-162924761D01*
X113173333Y-162829523D01*
X113125714Y-162734285D01*
X113078095Y-162543809D01*
X113078095Y-162400952D01*
X113125714Y-162210476D01*
X113173333Y-162115238D01*
X113268571Y-162020000D01*
X113411428Y-161972380D01*
X113506666Y-161972380D01*
X113649523Y-162020000D01*
X113697142Y-162067619D01*
X114649523Y-162972380D02*
X114078095Y-162972380D01*
X114363809Y-162972380D02*
X114363809Y-161972380D01*
X114268571Y-162115238D01*
X114173333Y-162210476D01*
X114078095Y-162258095D01*
X115506666Y-162305714D02*
X115506666Y-162972380D01*
X115268571Y-161924761D02*
X115030476Y-162639047D01*
X115649523Y-162639047D01*
%TO.C,C13*%
X132747142Y-162877142D02*
X132699523Y-162924761D01*
X132556666Y-162972380D01*
X132461428Y-162972380D01*
X132318571Y-162924761D01*
X132223333Y-162829523D01*
X132175714Y-162734285D01*
X132128095Y-162543809D01*
X132128095Y-162400952D01*
X132175714Y-162210476D01*
X132223333Y-162115238D01*
X132318571Y-162020000D01*
X132461428Y-161972380D01*
X132556666Y-161972380D01*
X132699523Y-162020000D01*
X132747142Y-162067619D01*
X133699523Y-162972380D02*
X133128095Y-162972380D01*
X133413809Y-162972380D02*
X133413809Y-161972380D01*
X133318571Y-162115238D01*
X133223333Y-162210476D01*
X133128095Y-162258095D01*
X134032857Y-161972380D02*
X134651904Y-161972380D01*
X134318571Y-162353333D01*
X134461428Y-162353333D01*
X134556666Y-162400952D01*
X134604285Y-162448571D01*
X134651904Y-162543809D01*
X134651904Y-162781904D01*
X134604285Y-162877142D01*
X134556666Y-162924761D01*
X134461428Y-162972380D01*
X134175714Y-162972380D01*
X134080476Y-162924761D01*
X134032857Y-162877142D01*
%TO.C,C12*%
X151797142Y-162877142D02*
X151749523Y-162924761D01*
X151606666Y-162972380D01*
X151511428Y-162972380D01*
X151368571Y-162924761D01*
X151273333Y-162829523D01*
X151225714Y-162734285D01*
X151178095Y-162543809D01*
X151178095Y-162400952D01*
X151225714Y-162210476D01*
X151273333Y-162115238D01*
X151368571Y-162020000D01*
X151511428Y-161972380D01*
X151606666Y-161972380D01*
X151749523Y-162020000D01*
X151797142Y-162067619D01*
X152749523Y-162972380D02*
X152178095Y-162972380D01*
X152463809Y-162972380D02*
X152463809Y-161972380D01*
X152368571Y-162115238D01*
X152273333Y-162210476D01*
X152178095Y-162258095D01*
X153130476Y-162067619D02*
X153178095Y-162020000D01*
X153273333Y-161972380D01*
X153511428Y-161972380D01*
X153606666Y-162020000D01*
X153654285Y-162067619D01*
X153701904Y-162162857D01*
X153701904Y-162258095D01*
X153654285Y-162400952D01*
X153082857Y-162972380D01*
X153701904Y-162972380D01*
%TO.C,C11*%
X170847142Y-162877142D02*
X170799523Y-162924761D01*
X170656666Y-162972380D01*
X170561428Y-162972380D01*
X170418571Y-162924761D01*
X170323333Y-162829523D01*
X170275714Y-162734285D01*
X170228095Y-162543809D01*
X170228095Y-162400952D01*
X170275714Y-162210476D01*
X170323333Y-162115238D01*
X170418571Y-162020000D01*
X170561428Y-161972380D01*
X170656666Y-161972380D01*
X170799523Y-162020000D01*
X170847142Y-162067619D01*
X171799523Y-162972380D02*
X171228095Y-162972380D01*
X171513809Y-162972380D02*
X171513809Y-161972380D01*
X171418571Y-162115238D01*
X171323333Y-162210476D01*
X171228095Y-162258095D01*
X172751904Y-162972380D02*
X172180476Y-162972380D01*
X172466190Y-162972380D02*
X172466190Y-161972380D01*
X172370952Y-162115238D01*
X172275714Y-162210476D01*
X172180476Y-162258095D01*
%TO.C,C10*%
X189897142Y-162877142D02*
X189849523Y-162924761D01*
X189706666Y-162972380D01*
X189611428Y-162972380D01*
X189468571Y-162924761D01*
X189373333Y-162829523D01*
X189325714Y-162734285D01*
X189278095Y-162543809D01*
X189278095Y-162400952D01*
X189325714Y-162210476D01*
X189373333Y-162115238D01*
X189468571Y-162020000D01*
X189611428Y-161972380D01*
X189706666Y-161972380D01*
X189849523Y-162020000D01*
X189897142Y-162067619D01*
X190849523Y-162972380D02*
X190278095Y-162972380D01*
X190563809Y-162972380D02*
X190563809Y-161972380D01*
X190468571Y-162115238D01*
X190373333Y-162210476D01*
X190278095Y-162258095D01*
X191468571Y-161972380D02*
X191563809Y-161972380D01*
X191659047Y-162020000D01*
X191706666Y-162067619D01*
X191754285Y-162162857D01*
X191801904Y-162353333D01*
X191801904Y-162591428D01*
X191754285Y-162781904D01*
X191706666Y-162877142D01*
X191659047Y-162924761D01*
X191563809Y-162972380D01*
X191468571Y-162972380D01*
X191373333Y-162924761D01*
X191325714Y-162877142D01*
X191278095Y-162781904D01*
X191230476Y-162591428D01*
X191230476Y-162353333D01*
X191278095Y-162162857D01*
X191325714Y-162067619D01*
X191373333Y-162020000D01*
X191468571Y-161972380D01*
%TO.C,C9*%
X199183333Y-159147142D02*
X199135714Y-159194761D01*
X198992857Y-159242380D01*
X198897619Y-159242380D01*
X198754761Y-159194761D01*
X198659523Y-159099523D01*
X198611904Y-159004285D01*
X198564285Y-158813809D01*
X198564285Y-158670952D01*
X198611904Y-158480476D01*
X198659523Y-158385238D01*
X198754761Y-158290000D01*
X198897619Y-158242380D01*
X198992857Y-158242380D01*
X199135714Y-158290000D01*
X199183333Y-158337619D01*
X199659523Y-159242380D02*
X199850000Y-159242380D01*
X199945238Y-159194761D01*
X199992857Y-159147142D01*
X200088095Y-159004285D01*
X200135714Y-158813809D01*
X200135714Y-158432857D01*
X200088095Y-158337619D01*
X200040476Y-158290000D01*
X199945238Y-158242380D01*
X199754761Y-158242380D01*
X199659523Y-158290000D01*
X199611904Y-158337619D01*
X199564285Y-158432857D01*
X199564285Y-158670952D01*
X199611904Y-158766190D01*
X199659523Y-158813809D01*
X199754761Y-158861428D01*
X199945238Y-158861428D01*
X200040476Y-158813809D01*
X200088095Y-158766190D01*
X200135714Y-158670952D01*
%TO.C,C8*%
X180133333Y-159147142D02*
X180085714Y-159194761D01*
X179942857Y-159242380D01*
X179847619Y-159242380D01*
X179704761Y-159194761D01*
X179609523Y-159099523D01*
X179561904Y-159004285D01*
X179514285Y-158813809D01*
X179514285Y-158670952D01*
X179561904Y-158480476D01*
X179609523Y-158385238D01*
X179704761Y-158290000D01*
X179847619Y-158242380D01*
X179942857Y-158242380D01*
X180085714Y-158290000D01*
X180133333Y-158337619D01*
X180704761Y-158670952D02*
X180609523Y-158623333D01*
X180561904Y-158575714D01*
X180514285Y-158480476D01*
X180514285Y-158432857D01*
X180561904Y-158337619D01*
X180609523Y-158290000D01*
X180704761Y-158242380D01*
X180895238Y-158242380D01*
X180990476Y-158290000D01*
X181038095Y-158337619D01*
X181085714Y-158432857D01*
X181085714Y-158480476D01*
X181038095Y-158575714D01*
X180990476Y-158623333D01*
X180895238Y-158670952D01*
X180704761Y-158670952D01*
X180609523Y-158718571D01*
X180561904Y-158766190D01*
X180514285Y-158861428D01*
X180514285Y-159051904D01*
X180561904Y-159147142D01*
X180609523Y-159194761D01*
X180704761Y-159242380D01*
X180895238Y-159242380D01*
X180990476Y-159194761D01*
X181038095Y-159147142D01*
X181085714Y-159051904D01*
X181085714Y-158861428D01*
X181038095Y-158766190D01*
X180990476Y-158718571D01*
X180895238Y-158670952D01*
%TO.C,C7*%
X161083333Y-159147142D02*
X161035714Y-159194761D01*
X160892857Y-159242380D01*
X160797619Y-159242380D01*
X160654761Y-159194761D01*
X160559523Y-159099523D01*
X160511904Y-159004285D01*
X160464285Y-158813809D01*
X160464285Y-158670952D01*
X160511904Y-158480476D01*
X160559523Y-158385238D01*
X160654761Y-158290000D01*
X160797619Y-158242380D01*
X160892857Y-158242380D01*
X161035714Y-158290000D01*
X161083333Y-158337619D01*
X161416666Y-158242380D02*
X162083333Y-158242380D01*
X161654761Y-159242380D01*
%TO.C,C6*%
X142033333Y-159147142D02*
X141985714Y-159194761D01*
X141842857Y-159242380D01*
X141747619Y-159242380D01*
X141604761Y-159194761D01*
X141509523Y-159099523D01*
X141461904Y-159004285D01*
X141414285Y-158813809D01*
X141414285Y-158670952D01*
X141461904Y-158480476D01*
X141509523Y-158385238D01*
X141604761Y-158290000D01*
X141747619Y-158242380D01*
X141842857Y-158242380D01*
X141985714Y-158290000D01*
X142033333Y-158337619D01*
X142890476Y-158242380D02*
X142700000Y-158242380D01*
X142604761Y-158290000D01*
X142557142Y-158337619D01*
X142461904Y-158480476D01*
X142414285Y-158670952D01*
X142414285Y-159051904D01*
X142461904Y-159147142D01*
X142509523Y-159194761D01*
X142604761Y-159242380D01*
X142795238Y-159242380D01*
X142890476Y-159194761D01*
X142938095Y-159147142D01*
X142985714Y-159051904D01*
X142985714Y-158813809D01*
X142938095Y-158718571D01*
X142890476Y-158670952D01*
X142795238Y-158623333D01*
X142604761Y-158623333D01*
X142509523Y-158670952D01*
X142461904Y-158718571D01*
X142414285Y-158813809D01*
%TO.C,C5*%
X122983333Y-159147142D02*
X122935714Y-159194761D01*
X122792857Y-159242380D01*
X122697619Y-159242380D01*
X122554761Y-159194761D01*
X122459523Y-159099523D01*
X122411904Y-159004285D01*
X122364285Y-158813809D01*
X122364285Y-158670952D01*
X122411904Y-158480476D01*
X122459523Y-158385238D01*
X122554761Y-158290000D01*
X122697619Y-158242380D01*
X122792857Y-158242380D01*
X122935714Y-158290000D01*
X122983333Y-158337619D01*
X123888095Y-158242380D02*
X123411904Y-158242380D01*
X123364285Y-158718571D01*
X123411904Y-158670952D01*
X123507142Y-158623333D01*
X123745238Y-158623333D01*
X123840476Y-158670952D01*
X123888095Y-158718571D01*
X123935714Y-158813809D01*
X123935714Y-159051904D01*
X123888095Y-159147142D01*
X123840476Y-159194761D01*
X123745238Y-159242380D01*
X123507142Y-159242380D01*
X123411904Y-159194761D01*
X123364285Y-159147142D01*
%TO.C,C4*%
X103933333Y-159147142D02*
X103885714Y-159194761D01*
X103742857Y-159242380D01*
X103647619Y-159242380D01*
X103504761Y-159194761D01*
X103409523Y-159099523D01*
X103361904Y-159004285D01*
X103314285Y-158813809D01*
X103314285Y-158670952D01*
X103361904Y-158480476D01*
X103409523Y-158385238D01*
X103504761Y-158290000D01*
X103647619Y-158242380D01*
X103742857Y-158242380D01*
X103885714Y-158290000D01*
X103933333Y-158337619D01*
X104790476Y-158575714D02*
X104790476Y-159242380D01*
X104552380Y-158194761D02*
X104314285Y-158909047D01*
X104933333Y-158909047D01*
%TO.C,C3*%
X84883333Y-159147142D02*
X84835714Y-159194761D01*
X84692857Y-159242380D01*
X84597619Y-159242380D01*
X84454761Y-159194761D01*
X84359523Y-159099523D01*
X84311904Y-159004285D01*
X84264285Y-158813809D01*
X84264285Y-158670952D01*
X84311904Y-158480476D01*
X84359523Y-158385238D01*
X84454761Y-158290000D01*
X84597619Y-158242380D01*
X84692857Y-158242380D01*
X84835714Y-158290000D01*
X84883333Y-158337619D01*
X85216666Y-158242380D02*
X85835714Y-158242380D01*
X85502380Y-158623333D01*
X85645238Y-158623333D01*
X85740476Y-158670952D01*
X85788095Y-158718571D01*
X85835714Y-158813809D01*
X85835714Y-159051904D01*
X85788095Y-159147142D01*
X85740476Y-159194761D01*
X85645238Y-159242380D01*
X85359523Y-159242380D01*
X85264285Y-159194761D01*
X85216666Y-159147142D01*
%TO.C,C2*%
X65833333Y-159147142D02*
X65785714Y-159194761D01*
X65642857Y-159242380D01*
X65547619Y-159242380D01*
X65404761Y-159194761D01*
X65309523Y-159099523D01*
X65261904Y-159004285D01*
X65214285Y-158813809D01*
X65214285Y-158670952D01*
X65261904Y-158480476D01*
X65309523Y-158385238D01*
X65404761Y-158290000D01*
X65547619Y-158242380D01*
X65642857Y-158242380D01*
X65785714Y-158290000D01*
X65833333Y-158337619D01*
X66214285Y-158337619D02*
X66261904Y-158290000D01*
X66357142Y-158242380D01*
X66595238Y-158242380D01*
X66690476Y-158290000D01*
X66738095Y-158337619D01*
X66785714Y-158432857D01*
X66785714Y-158528095D01*
X66738095Y-158670952D01*
X66166666Y-159242380D01*
X66785714Y-159242380D01*
%TO.C,C1*%
X46783333Y-159147142D02*
X46735714Y-159194761D01*
X46592857Y-159242380D01*
X46497619Y-159242380D01*
X46354761Y-159194761D01*
X46259523Y-159099523D01*
X46211904Y-159004285D01*
X46164285Y-158813809D01*
X46164285Y-158670952D01*
X46211904Y-158480476D01*
X46259523Y-158385238D01*
X46354761Y-158290000D01*
X46497619Y-158242380D01*
X46592857Y-158242380D01*
X46735714Y-158290000D01*
X46783333Y-158337619D01*
X47735714Y-159242380D02*
X47164285Y-159242380D01*
X47450000Y-159242380D02*
X47450000Y-158242380D01*
X47354761Y-158385238D01*
X47259523Y-158480476D01*
X47164285Y-158528095D01*
%TO.C,A1*%
X65325714Y-155106666D02*
X65801904Y-155106666D01*
X65230476Y-155392380D02*
X65563809Y-154392380D01*
X65897142Y-155392380D01*
X66754285Y-155392380D02*
X66182857Y-155392380D01*
X66468571Y-155392380D02*
X66468571Y-154392380D01*
X66373333Y-154535238D01*
X66278095Y-154630476D01*
X66182857Y-154678095D01*
%TD*%
M02*
